<?xml version="1.0"?>
<svg version="1.1" id="圖層_1" xmlns="http://www.w3.org/2000/svg" x="0" y="0" viewBox="0 0 100 100" xml:space="preserve"><g><path d="M41.6 91.6c-7.3-1.4-15-5.7-19.9-11s-6.4-13.1-2.6-18.9c1.2-1.8 2.9-3.5 3.8-5.4 2.5-5.1-.5-11.1.5-16.6 1.2-6.3 7.4-10.9 13.2-14.8-.9 3.2.5 6.8 3.4 8.9.8.6 1.8 1.1 2.8.9.7-.1 1.3-.5 1.8-.9 3.2-2.6 4.6-6.5 4.5-10.3-.1-3.8-1.5-7.5-3.2-11-.6-1.2-2-3.4-2.7-5 1.3-.1 4.8 1.1 5.8 1.4 8.6 2.8 15.8 8.7 19.5 16.1 3.7 7.4 3.8 16 .4 23.4-1.5 3.3-3.7 6.3-4.3 9.8-.1.6-.2 1.3.1 1.9.9 2.1 4.4 1.9 6.7.9 3.2-1.5 5.9-4 7.4-6.9 4.7 6.6 5.6 15.1 2.3 22.2S70.4 88.9 61.9 91c-7.5 1.7-13 2-20.3.6z" fill="#e15b64"/></g><path d="M49.2 55.9c-6.4 3.4-10.7 9.9-10.7 17.4 0 1.9.3 3.8.8 5.5 2.9 9.5 16.9 9.5 19.7 0 .5-1.8.8-3.6.8-5.5.1-7.5-4.2-14-10.6-17.4z" fill="#f8b26a"/><metadata xmlns:d="https://loading.io/stock/"><d:name>fire</d:name><d:tags>flame,flare,burn,scorch,fire,weather</d:tags><d:license>pro</d:license><d:slug>4gk7gh</d:slug></metadata></svg>