<?xml version="1.0"?>
<svg version="1.1" id="圖層_1" xmlns="http://www.w3.org/2000/svg" x="0" y="0" viewBox="0 0 100 100" xml:space="preserve"><path d="M58.5 7.5c-18.3 9.6-35.4 28.2-35.4 49.3 0 5.4.7 10.7 2.1 15.6 7.2 26.8 42.5 26.8 49.7 0 1.3-5 2-10.2 2.1-15.6.2-20.2-20.1-32-18.5-49.3z" fill="#c33737"/><path d="M50 32.7c-11.3 6-18.9 17.5-18.9 30.7 0 3.4.5 6.7 1.4 9.8 5.1 16.8 29.8 16.8 34.9 0 .9-3.1 1.4-6.4 1.4-9.8.1-13.2-7.5-24.7-18.8-30.7z" fill="#f47e60"/><path d="M50 47.5C43.2 51.2 38.6 58.1 38.6 66c0 2 .3 4 .9 5.9 3.1 10.1 17.9 10.1 21 0 .6-1.9.9-3.8.9-5.9 0-7.9-4.6-14.8-11.4-18.5z" fill="#f8b26a"/><metadata xmlns:d="https://loading.io/stock/"><d:name>fire</d:name><d:tags>candle,flame,flare,burn,scorch,fire,weather</d:tags><d:license>pro</d:license><d:slug>4xyw41</d:slug></metadata></svg>