<?xml version="1.0"?><svg xmlns="http://www.w3.org/2000/svg" viewBox="0 0 100 100"><path fill="none" stroke="#000" stroke-width="3" stroke-linecap="round" stroke-linejoin="round" stroke-miterlimit="10" d="M50 32.1l4.4 9.9 10.8-1.2-6.5 8.8 6.5 8.7-10.8-1.1-4.4 9.9-4.4-9.9-10.8 1.1 6.5-8.7-6.5-8.8L45.6 42z"/><g><path fill="none" stroke="#000" stroke-width="3" stroke-linecap="round" stroke-miterlimit="10" d="M76.7 18.7L64.2 23 60 11.9"/><path fill="none" stroke="#000" stroke-width="3" stroke-linecap="round" stroke-miterlimit="10" d="M56.8 17.9l4.4 10.9 12.5-3.7"/><path fill="none" stroke="#000" stroke-width="3" stroke-linecap="round" stroke-miterlimit="10" d="M70.6 10L57.3 36.5"/></g><g><path fill="none" stroke="#000" stroke-width="3" stroke-linecap="round" stroke-miterlimit="10" d="M36.2 11.2l-2.5 13-11.7-2"/><path fill="none" stroke="#000" stroke-width="3" stroke-linecap="round" stroke-miterlimit="10" d="M25.6 28.1l11.6 1.6L40.3 17"/><path fill="none" stroke="#000" stroke-width="3" stroke-linecap="round" stroke-miterlimit="10" d="M25.7 12.2L42 36.9"/></g><g><path fill="none" stroke="#000" stroke-width="3" stroke-linecap="round" stroke-miterlimit="10" d="M9.5 42.5l10 8.7-7.5 9.2"/><path fill="none" stroke="#000" stroke-width="3" stroke-linecap="round" stroke-miterlimit="10" d="M18.8 60.2l7.2-9.3-9.5-9"/><path fill="none" stroke="#000" stroke-width="3" stroke-linecap="round" stroke-miterlimit="10" d="M5.1 52.2l29.6-1.8"/></g><g><path fill="none" stroke="#000" stroke-width="3" stroke-linecap="round" stroke-miterlimit="10" d="M23.3 81.3L35.8 77 40 88.1"/><path fill="none" stroke="#000" stroke-width="3" stroke-linecap="round" stroke-miterlimit="10" d="M43.2 82.1l-4.4-10.9-12.5 3.7"/><path fill="none" stroke="#000" stroke-width="3" stroke-linecap="round" stroke-miterlimit="10" d="M29.4 90l13.3-26.5"/></g><g><path fill="none" stroke="#000" stroke-width="3" stroke-linecap="round" stroke-miterlimit="10" d="M63.8 88.8l2.5-13 11.7 2"/><path fill="none" stroke="#000" stroke-width="3" stroke-linecap="round" stroke-miterlimit="10" d="M74.4 71.9l-11.6-1.6L59.7 83"/><path fill="none" stroke="#000" stroke-width="3" stroke-linecap="round" stroke-miterlimit="10" d="M74.3 87.8L58 63.1"/></g><g><path fill="none" stroke="#000" stroke-width="3" stroke-linecap="round" stroke-miterlimit="10" d="M90.5 57.5l-10-8.7 7.5-9.2"/><path fill="none" stroke="#000" stroke-width="3" stroke-linecap="round" stroke-miterlimit="10" d="M81.2 39.8L74 49.1l9.5 9"/><path fill="none" stroke="#000" stroke-width="3" stroke-linecap="round" stroke-miterlimit="10" d="M94.9 47.8l-29.6 1.8"/></g><metadata xmlns:d="https://loading.io/stock/">
<d:name>snow flake</d:name>
<d:tags>snow flake,freeze,christmas,winter,ice</d:tags>
<d:license>by</d:license>
<d:slug>7fltad</d:slug>
</metadata></svg>