<?xml version="1.0"?>
<svg version="1.1" id="圖層_1" xmlns="http://www.w3.org/2000/svg" x="0" y="0" viewBox="0 0 100 100" xml:space="preserve"><path d="M58.672 32.766H41.914V18.771A5.771 5.771 0 0 1 47.685 13H52.9a5.771 5.771 0 0 1 5.771 5.771v13.995z" fill="#666" stroke="#333" stroke-width="3.5" stroke-miterlimit="10"/><path d="M78.739 87H21.261a3.489 3.489 0 0 1-3.489-3.489v-3.272c0-.989.135-1.974.402-2.927l6.449-43.198a10.844 10.844 0 0 1 10.441-7.917h29.871c4.862 0 9.129 3.236 10.441 7.917l6.449 43.198c.267.953.402 1.937.402 2.927v3.272A3.487 3.487 0 0 1 78.739 87z" fill="#666" stroke="#333" stroke-width="3.5" stroke-miterlimit="10"/><g><path d="M48.467 71.332c0 .12-.031.226-.09.318-.06.093-.174.169-.343.228-.169.06-.4.106-.693.139-.294.033-.664.049-1.109.049-.707 0-1.215-.028-1.525-.082s-.533-.136-.669-.245a1.14 1.14 0 0 1-.318-.391l-6.377-10.014v10.014c0 .12-.033.223-.098.31s-.179.161-.343.22c-.163.06-.381.106-.652.139-.272.033-.62.049-1.044.049-.414 0-.758-.016-1.036-.049a2.971 2.971 0 0 1-.661-.139c-.163-.06-.28-.133-.351-.22a.474.474 0 0 1-.106-.31V51.467c0-.119.035-.223.106-.31.07-.087.188-.157.351-.212.163-.054.383-.098.661-.13s.622-.049 1.036-.049c.424 0 .772.016 1.044.049.271.033.489.076.652.13.163.055.277.125.343.212a.505.505 0 0 1 .098.31v8.987l6.181-8.97a1.19 1.19 0 0 1 .277-.351c.108-.092.25-.166.424-.22.173-.054.397-.092.669-.114.271-.021.62-.033 1.044-.033.434 0 .793.016 1.076.049.282.033.508.079.677.139.168.06.285.134.351.22a.48.48 0 0 1 .098.294c0 .185-.049.375-.147.571s-.283.506-.555.93l-5.79 7.584 6.312 9.541c.239.446.383.742.432.889.05.145.075.262.075.349z" fill="#e0e0e0"/><path d="M66.946 54.141c0 .315-.014.587-.041.815a2.593 2.593 0 0 1-.114.546.616.616 0 0 1-.179.285.4.4 0 0 1-.253.082c-.142 0-.37-.098-.685-.294a10.14 10.14 0 0 0-1.256-.636 13.636 13.636 0 0 0-1.867-.636c-.724-.196-1.564-.294-2.52-.294-1.022 0-1.947.177-2.773.53a6.034 6.034 0 0 0-2.12 1.5c-.587.647-1.039 1.425-1.354 2.332-.316.908-.473 1.911-.473 3.009 0 1.207.16 2.27.481 3.189.32.919.769 1.688 1.346 2.308a5.536 5.536 0 0 0 2.079 1.403c.809.315 1.704.473 2.683.473.478 0 .951-.054 1.419-.163a5.26 5.26 0 0 0 1.305-.489V63.21h-3.996c-.196 0-.349-.122-.457-.367-.109-.245-.163-.661-.163-1.248 0-.304.013-.56.041-.767.027-.206.067-.372.122-.497a.687.687 0 0 1 .196-.277.408.408 0 0 1 .261-.09h7.127a1.022 1.022 0 0 1 .824.359c.103.12.181.264.236.432a1.9 1.9 0 0 1 .082.579v8.399c0 .326-.057.612-.171.856-.114.245-.349.438-.701.579-.354.142-.791.288-1.313.44a17.985 17.985 0 0 1-3.319.636c-.571.054-1.145.082-1.721.082-1.686 0-3.195-.242-4.526-.726-1.332-.484-2.461-1.185-3.384-2.104-.925-.918-1.631-2.039-2.12-3.36-.489-1.321-.734-2.819-.734-4.493 0-1.729.261-3.281.783-4.656.522-1.375 1.261-2.544 2.218-3.507.956-.962 2.112-1.699 3.466-2.21 1.354-.511 2.862-.767 4.526-.767.913 0 1.745.063 2.495.188s1.405.277 1.965.457a7.73 7.73 0 0 1 1.394.579c.369.207.628.386.775.538.147.152.253.367.318.644s.098.689.098 1.232z" fill="#e0e0e0"/></g><metadata xmlns:d="https://loading.io/stock/"><d:name>weight</d:name><d:tags>weight,kg,measure,kilogram,heavy,iron,press</d:tags><d:license>by</d:license><d:slug>9k1bqs</d:slug></metadata></svg>