<?xml version="1.0"?>
<svg version="1.1" id="圖層_1" xmlns="http://www.w3.org/2000/svg" x="0" y="0" viewBox="0 0 100 100" xml:space="preserve"><path d="M52 77.6V22.4l9.4-9.4c.8-.8.8-2.1 0-2.9-.8-.8-2.1-.8-2.9 0L52 16.6V7.5c0-1.1-.9-2-2-2s-2 .9-2 2v9.1l-6.5-6.5c-.8-.8-2.1-.8-2.9 0-.8.8-.8 2.1 0 2.9l9.4 9.4v55.2L38.6 87c-.8.8-.8 2.1 0 2.9.4.4.9.6 1.4.6s1-.2 1.4-.6l6.5-6.5v9.1c0 1.1.9 2 2 2s2-.9 2-2v-9.1l6.5 6.5c.4.4.9.6 1.4.6s1-.2 1.4-.6c.8-.8.8-2.1 0-2.9L52 77.6z" fill="#a0c8d7"/><path d="M90.2 60c-.3-1.1-1.4-1.7-2.5-1.4L74.9 62 51 48.2 27.1 34.4l-3.4-12.8c-.3-1.1-1.4-1.7-2.5-1.4-1.1.3-1.7 1.4-1.4 2.5l2.4 8.8-8-4.5c-1-.6-2.2-.2-2.8.7-.6 1-.2 2.2.8 2.8l7.9 4.6-8.8 2.4c-1.1.3-1.7 1.4-1.4 2.5.2.9 1.1 1.5 2 1.5.2 0 .4 0 .5-.1L25.1 38 49 51.8l23.9 13.8 3.4 12.8c.2.9 1.1 1.5 2 1.5.2 0 .4 0 .5-.1 1.1-.3 1.7-1.4 1.4-2.5l-2.4-8.8 7.9 4.6c.3.2.7.3 1 .3.7 0 1.4-.4 1.8-1 .6-1 .2-2.2-.8-2.8L79.8 65l8.8-2.4c1.2-.4 1.9-1.5 1.6-2.6z" fill="#a0c8d7"/><path d="M88.7 37.5l-8.8-2.4 7.9-4.6c1-.6 1.3-1.8.8-2.8-.6-1-1.8-1.3-2.8-.7l-7.9 4.6 2.4-8.8c.3-1.1-.4-2.2-1.4-2.5-1.1-.3-2.2.4-2.5 1.4L73 34.5 49 48.2 25.1 62l-12.8-3.4c-1.1-.3-2.2.4-2.5 1.4-.3 1.1.4 2.2 1.4 2.5l8.8 2.4-7.9 4.6c-1 .6-1.3 1.8-.8 2.8.4.7 1.1 1 1.8 1 .3 0 .7-.1 1-.3l7.9-4.6-2.4 8.8c-.3 1.1.4 2.2 1.4 2.5.2 0 .4.1.5.1.9 0 1.7-.6 2-1.5l3.4-12.8L51 51.8 74.9 38l12.8 3.4c.2 0 .4.1.5.1.9 0 1.7-.6 2-1.5.3-1.1-.4-2.2-1.5-2.5z" fill="#a0c8d7"/><g><path d="M62.9 72.4L50 64.9l-12.9 7.4V57.4L24.2 50l12.9-7.5V27.6L50 35.1l12.9-7.4v14.9L75.8 50l-12.9 7.5v14.9zM50 60.2l8.8 5.1V55.1l8.8-5.1-8.8-5.1V34.7L50 39.8l-8.8-5.1v10.2L32.4 50l8.8 5.1v10.2l8.8-5.1z" fill="#77a4bd"/></g><metadata xmlns:d="https://loading.io/stock/"><d:name>snow flake</d:name><d:tags>ice,crystal,polygon,christmas,cold,frozen,snow flake,weather</d:tags><d:license>pro</d:license><d:slug>cbm66s</d:slug></metadata></svg>