<?xml version="1.0" encoding="iso-8859-1"?>
<!-- Uploaded to: SVG Repo, www.svgrepo.com, Generator: SVG Repo Mixer Tools -->
<svg height="800px" width="800px" version="1.1" id="Layer_1" xmlns="http://www.w3.org/2000/svg" xmlns:xlink="http://www.w3.org/1999/xlink" 
	 viewBox="0 0 512 512" xml:space="preserve">
<path style="fill:#4EB79B;" d="M444.557,246.582l-19.165,19.165c-23.966,23.953-62.81,23.953-86.776,0l-19.165-19.165l19.165-19.165
	c23.966-23.966,62.81-23.966,86.776,0L444.557,246.582z"/>
<path style="fill:#F7A872;" d="M294.563,294.059c-2.001,0-4.014-0.65-5.703-1.99c-3.974-3.153-4.639-8.93-1.485-12.904
	c0.265-0.336,12.506-15.936,20.996-34.621c7.046-15.506,12.983-36.453,1.25-48.185c-3.587-3.587-3.587-9.403,0-12.989
	c3.589-3.587,9.404-3.586,12.989,0c35.407,35.408-18.534,104.299-20.846,107.213C299.952,292.869,297.27,294.059,294.563,294.059z"
	/>
<path style="fill:#E88158;" d="M325.109,467.795c-42.555,42.555-104.202,54.385-157.374,35.489
	c-3.747-1.335-7.225-3.208-10.348-5.535c-0.012-0.012-0.024-0.012-0.037-0.024c-5.168-3.845-9.368-8.927-12.222-14.842
	c-4.96-10.25-11.695-19.863-20.206-28.362c-8.499-8.511-18.112-15.234-28.362-20.194c-9.503-4.605-16.863-12.675-20.402-22.618
	c-18.896-53.172-7.066-114.819,35.489-157.374c50.846-50.846,134.597-63.508,170-3.723c0.196,0.318,0.38,0.637,0.551,0.943
	c0.441,0.784,0.869,1.555,1.286,2.327c0.012,0,0.012,0.012,0.012,0.012c4.776,8.829,8.536,19.128,11.07,30.983
	C391.703,305.645,384.061,408.855,325.109,467.795z"/>
<path style="fill:#D37250;" d="M145.63,288.317c-51.274,63.227-34.344,154.699,11.756,209.432c-0.012-0.012-0.024-0.012-0.037-0.024
	c-5.168-3.845-9.368-8.927-12.222-14.842c-4.96-10.25-11.695-19.863-20.206-28.362c-8.499-8.511-18.112-15.234-28.362-20.194
	c-9.503-4.605-16.863-12.675-20.402-22.618c-18.896-53.172-7.066-114.819,35.489-157.374c50.846-50.846,134.597-63.508,170-3.723
	c0.196,0.318,0.38,0.637,0.551,0.943c0.441,0.784,0.869,1.555,1.286,2.327C242.46,232.928,180.216,245.67,145.63,288.317z"/>
<g>
	<path style="fill:#CCCCCC;" d="M128.063,192.953c-5.072,0-9.185-4.112-9.185-9.185V52.312c0-5.072,4.112-9.185,9.185-9.185
		s9.185,4.112,9.185,9.185v131.457C137.248,188.842,133.136,192.953,128.063,192.953z"/>
	<path style="fill:#CCCCCC;" d="M266.069,66.208c-5.074,0-9.185-4.112-9.185-9.185V37.936c0-5.072,4.111-9.185,9.185-9.185
		c5.074,0,9.185,4.112,9.185,9.185v19.088C275.254,62.097,271.142,66.208,266.069,66.208z"/>
	<path style="fill:#CCCCCC;" d="M266.069,188.641c-5.074,0-9.185-4.112-9.185-9.185V85.19c0-5.072,4.111-9.185,9.185-9.185
		c5.074,0,9.185,4.112,9.185,9.185v94.265C275.254,184.529,271.142,188.641,266.069,188.641z"/>
	<path style="fill:#CCCCCC;" d="M197.066,101.111c-5.072,0-9.185-4.112-9.185-9.185V9.185c0-5.072,4.112-9.185,9.185-9.185
		s9.185,4.112,9.185,9.185v82.742C206.251,96.999,202.139,101.111,197.066,101.111z"/>
	<path style="fill:#CCCCCC;" d="M197.066,157.014c-5.072,0-9.185-4.112-9.185-9.185v-28.962c0-5.072,4.112-9.185,9.185-9.185
		s9.185,4.112,9.185,9.185v28.962C206.251,152.902,202.139,157.014,197.066,157.014z"/>
</g>
</svg>