<?xml version="1.0"?>
<svg version="1.1" id="圖層_1" xmlns="http://www.w3.org/2000/svg" x="0" y="0" viewBox="0 0 100 100" xml:space="preserve"><path d="M89 67.5c-.4-1.6-1.4-2.9-2.9-3.7-1.4-.8-3.1-1-4.7-.6-1 .3-1.9.8-2.6 1.5L76.1 63l7.7-2.1c1-.3 1.5-1.2 1.3-2.2-.3-1-1.2-1.5-2.2-1.3l-11.2 3-20.9-12-20.8-12-3-11.2c-.3-1-1.2-1.5-2.2-1.3-1 .3-1.5 1.2-1.3 2.2l2.1 7.7-2.7-1.6c.2-1 .2-2-.1-3-.4-1.6-1.4-2.9-2.9-3.7-2.9-1.7-6.7-.7-8.4 2.2-.8 1.4-1 3.1-.6 4.7s1.4 2.9 2.9 3.7c.9.5 2 .8 3.1.8.5 0 1.1-.1 1.6-.2 1-.3 1.9-.8 2.6-1.5l2.7 1.6-7.6 2.2c-1 .3-1.5 1.2-1.3 2.2.2.8.9 1.3 1.7 1.3.2 0 .3 0 .5-.1l11.2-3 20.9 12 20.9 12 3 11.2c.2.8.9 1.3 1.7 1.3.2 0 .3 0 .5-.1 1-.3 1.5-1.2 1.3-2.2l-2.1-7.7 2.7 1.6c-.2 1-.2 2 .1 3 .4 1.6 1.4 2.9 2.9 3.7 1 .6 2 .8 3.1.8 2.1 0 4.2-1.1 5.3-3.1.6-1.2.8-2.8.4-4.4zM15.7 33.1c-.6-.3-1-.9-1.2-1.6-.2-.7-.1-1.3.3-1.9.5-.8 1.3-1.3 2.2-1.3.4 0 .9.1 1.3.3 1.2.7 1.6 2.3.9 3.5-.7 1.3-2.3 1.7-3.5 1zm69.6 37.3c-.7 1.2-2.3 1.6-3.5.9-1.2-.7-1.6-2.3-.9-3.5s2.3-1.6 3.5-.9c.6.3 1 .9 1.2 1.6.1.6 0 1.3-.3 1.9z" fill="#a0c8d7"/><path d="M51.8 74.1V25.9l8.2-8.2c.7-.7.7-1.8 0-2.5s-1.8-.7-2.5 0l-5.6 5.6v-3.1c2.5-.8 4.3-3.1 4.3-5.9 0-3.4-2.8-6.1-6.1-6.1S44 8.5 44 11.8c0 2.8 1.8 5.1 4.3 5.9v3.1l-5.6-5.6c-.7-.7-1.8-.7-2.5 0s-.7 1.8 0 2.5l8.2 8.2v48.2L40 82.3c-.7.7-.7 1.8 0 2.5.3.3.8.5 1.3.5s.9-.2 1.3-.5l5.6-5.6v3.1c-2.5.8-4.3 3.1-4.3 5.9 0 3.4 2.8 6.1 6.1 6.1s6.1-2.8 6.1-6.1c0-2.8-1.8-5.1-4.3-5.9v-3.1l5.6 5.6c.3.3.8.5 1.3.5s.9-.2 1.3-.5c.7-.7.7-1.8 0-2.5l-8.2-8.2zm-4.4-62.3c0-1.4 1.1-2.6 2.6-2.6s2.6 1.1 2.6 2.6-1.1 2.6-2.6 2.6-2.6-1.1-2.6-2.6zm5.2 76.4c0 1.4-1.1 2.6-2.6 2.6s-2.6-1.1-2.6-2.6 1.1-2.6 2.6-2.6 2.6 1.1 2.6 2.6z" fill="#a0c8d7"/><path d="M88.4 27.9C86.7 25 82.9 24 80 25.7c-1.4.8-2.4 2.1-2.9 3.7-.3 1-.3 2-.1 3L74.3 34l2.1-7.7c.3-1-.3-1.9-1.3-2.2-1-.3-1.9.3-2.2 1.3l-3 11.2-20.9 12-20.9 12-11.2-3c-1-.3-1.9.3-2.2 1.3-.3 1 .3 1.9 1.3 2.2l7.7 2.1-2.7 1.6c-.7-.7-1.6-1.2-2.6-1.5-1.6-.4-3.2-.2-4.7.6-1.4.8-2.4 2.1-2.9 3.7-.4 1.6-.2 3.2.6 4.7 1.1 2 3.2 3.1 5.3 3.1 1 0 2.1-.3 3.1-.8 1.4-.8 2.4-2.1 2.9-3.7.3-1 .3-2 .1-3l2.7-1.6-2.1 7.7c-.3 1 .3 1.9 1.3 2.2.2 0 .3.1.5.1.8 0 1.5-.5 1.7-1.3l3-11.2 20.9-12 20.9-12 11.2 3c.2 0 .3.1.5.1.8 0 1.5-.5 1.7-1.3.3-1-.3-1.9-1.3-2.2L76.1 37l2.7-1.6c.7.7 1.6 1.2 2.6 1.5.5.1 1.1.2 1.6.2 1.1 0 2.1-.3 3.1-.8 1.4-.8 2.4-2.1 2.9-3.7.4-1.7.2-3.3-.6-4.7zM18.2 71.3c-1.2.7-2.8.3-3.5-.9-.3-.6-.4-1.3-.3-1.9.2-.7.6-1.2 1.2-1.6.4-.2.8-.3 1.3-.3.9 0 1.7.5 2.2 1.3.8 1.1.4 2.7-.9 3.4zm67.3-39.7c-.2.7-.6 1.2-1.2 1.6-1.2.7-2.8.3-3.5-.9s-.3-2.8.9-3.5c.4-.2.8-.3 1.3-.3.9 0 1.7.5 2.2 1.3.4.4.5 1.1.3 1.8z" fill="#a0c8d7"/><path d="M69.8 43.9c-1.8 0-3.4.8-4.5 2l-4-2.3v-4.7h.2c1.6-.4 2.9-1.4 3.7-2.9.8-1.4 1-3.1.6-4.7s-1.4-2.9-2.9-3.7c-1.4-.8-3.1-1-4.7-.6s-2.9 1.4-3.7 2.9c-.8 1.4-1 3.1-.6 4.7 0 .1.1.1.1.2L50 37l-4-2.3c0-.1.1-.1.1-.2.4-1.6.2-3.2-.6-4.7-.8-1.4-2.1-2.4-3.7-2.9-1.6-.4-3.2-.2-4.7.6-1.4.8-2.4 2.1-2.9 3.7s-.2 3.2.6 4.7c.8 1.4 2.1 2.4 3.7 2.9h.2v4.7l-4 2.3c-1.1-1.2-2.7-2-4.5-2-3.4 0-6.1 2.8-6.1 6.1s2.8 6.1 6.1 6.1c1.8 0 3.4-.8 4.5-2l4 2.3V61h-.2c-1.6.4-2.9 1.4-3.7 2.9-.8 1.4-1 3.1-.6 4.7s1.4 2.9 2.9 3.7c.9.5 2 .8 3.1.8.5 0 1.1-.1 1.6-.2 1.6-.4 2.9-1.4 3.7-2.9.8-1.4 1-3.1.6-4.7 0-.1-.1-.1-.1-.2l4-2.3 4 2.3c0 .1-.1.1-.1.2-.4 1.6-.2 3.2.6 4.7.8 1.4 2.1 2.4 3.7 2.9.5.1 1.1.2 1.6.2 1.1 0 2.1-.3 3.1-.8 1.4-.8 2.4-2.1 2.9-3.7s.2-3.2-.6-4.7c-.8-1.4-2.1-2.4-3.7-2.9h-.2v-4.7l4-2.3c1.1 1.2 2.7 2 4.5 2 3.4 0 6.1-2.8 6.1-6.1s-2.7-6-6.1-6zM57.7 31.6c.3-.6.9-1 1.6-1.2.2-.1.4-.1.7-.1.4 0 .9.1 1.3.3.6.3 1 .9 1.2 1.6.2.7.1 1.4-.3 1.9-.7 1.2-2.3 1.6-3.5.9-.6-.3-1-.9-1.2-1.6-.2-.6-.2-1.2.2-1.8zm-19.8 2.5c-.3-.6-.4-1.3-.3-1.9.2-.7.6-1.2 1.2-1.6.4-.2.8-.3 1.3-.3.2 0 .4 0 .7.1.7.2 1.2.6 1.6 1.2.3.6.4 1.3.3 1.9-.2.7-.6 1.2-1.2 1.6-1.3.7-2.9.2-3.6-1zm-7.7 18.5c-1.4 0-2.6-1.1-2.6-2.6s1.1-2.6 2.6-2.6 2.6 1.1 2.6 2.6-1.2 2.6-2.6 2.6zm12.1 15.8c-.3.6-.9 1-1.6 1.2-.7.2-1.4.1-1.9-.3-.6-.3-1-.9-1.2-1.6-.2-.7-.1-1.4.3-1.9.5-.8 1.3-1.3 2.2-1.3.4 0 .9.1 1.3.3.6.3 1 .9 1.2 1.6.1.8.1 1.4-.3 2zm19.8-2.5c.3.6.4 1.3.3 1.9-.2.7-.6 1.2-1.2 1.6-.6.3-1.3.4-1.9.3-.7-.2-1.2-.6-1.6-1.2-.3-.6-.4-1.3-.3-1.9.2-.7.6-1.2 1.2-1.6.4-.2.8-.3 1.3-.3.9-.1 1.7.4 2.2 1.2zm-4.4-11.4v7c-.3.1-.6.2-.9.4-.3.2-.5.4-.8.6l-6-3.6-6.1 3.5c-.2-.2-.5-.4-.8-.6-.3-.2-.6-.3-.9-.4v-7l-6-3.5c0-.3.1-.6.1-1s0-.6-.1-1l6-3.5v-7c.3-.1.6-.2.9-.4.3-.2.5-.4.8-.6l6.1 3.5 6.1-3.5c.2.2.5.4.8.6.3.2.6.3.9.4v7l6 3.5c0 .3-.1.6-.1 1s0 .6.1 1l-6.1 3.6zm12.1-1.9c-1.4 0-2.6-1.1-2.6-2.6s1.1-2.6 2.6-2.6 2.6 1.1 2.6 2.6-1.2 2.6-2.6 2.6z" fill="#77a4bd"/><metadata xmlns:d="https://loading.io/stock/"><d:name>snow flake</d:name><d:tags>ice,crystal,polygon,christmas,cold,frozen,snow flake,weather</d:tags><d:license>pro</d:license><d:slug>m7cfic</d:slug></metadata></svg>