<svg width="1651" height="1451" viewBox="0 0 1651 1451" fill="none" xmlns="http://www.w3.org/2000/svg">
<path d="M124.9 1449.48C123.08 1449.73 121.27 1450.03 119.44 1450.26C121.27 1450.03 123.08 1449.72 124.9 1449.48Z" fill="#331E4A"/>
<path d="M67.01 377.9C70.81 381.18 76.29 383.49 82.95 385.04C76.29 383.5 70.81 381.18 67.01 377.9Z" fill="#4F2E73"/>
<path d="M59.7101 258.65C54.9001 261.37 50.0001 263.95 45.1601 266.62V266.63L44.9601 266.93C49.9001 264.2 54.8001 261.42 59.7101 258.65Z" fill="#4F2E73"/>
<path d="M16.42 888.91C16.23 888.02 16.06 887.11 15.87 886.22L15.11 887.38L16.42 888.91Z" fill="#54377F"/>
<path d="M137.54 1164.87C136.42 1166.01 135.31 1167.16 134.19 1168.31L134.28 1168.27C135.74 1167.66 137.22 1167.1 138.67 1166.5C138.29 1165.96 137.92 1165.41 137.54 1164.87Z" fill="#54377F"/>
<path d="M1136.67 208C1137.25 208.5 1137.86 208.95 1138.46 209.43C1139.02 208.44 1139.54 207.45 1140.12 206.46C1138.98 206.97 1137.82 207.48 1136.67 208Z" fill="#563279"/>
<path d="M130.41 386.89V386.87C112.56 388.15 95.6101 387.98 82.9601 385.04V385.05L82.9401 385.09C95.6101 388.02 112.56 388.18 130.41 386.89Z" fill="#643B8F"/>
<path d="M139.16 386.14V386.16C159.25 384.24 179.72 380.81 196.09 377.62C179.71 380.8 159.24 384.23 139.16 386.14Z" fill="#643B8F"/>
<path d="M38.55 743.45C40.4 742.92 42.2501 742.41 44.1001 741.89C42.2601 742.41 40.4 742.92 38.55 743.45Z" fill="#643B8F"/>
<path d="M0 754.32V754.33C8.13 752.06 16.24 749.75 24.36 747.46V747.45C16.24 749.74 8.13 752.05 0 754.32Z" fill="#643B8F"/>
<path d="M669.04 1381.99C674.46 1382.08 679.88 1382.17 685.3 1382.26C679.77 1381.62 674.26 1381.39 669.04 1381.99Z" fill="#643B8F"/>
<path d="M1197.42 216.83L1198.64 216.34C1197.21 216.54 1195.77 216.75 1194.31 216.99C1193.36 217.14 1192.42 217.27 1191.45 217.45C1190.43 217.63 1189.38 217.85 1188.35 218.06C1191.41 218.31 1195.25 217.52 1197.42 216.83Z" fill="#664696"/>
<path d="M1511.05 844.79L1509.43 853.26L1501.68 853.01L1509.27 854.82L1509.05 863.47L1510.66 855L1518.42 855.25L1510.83 853.44L1511.05 844.79Z" fill="white"/>
<path d="M1542.7 689.25L1534.95 689.49L1533.33 681.03L1533.55 689.68L1525.97 691.49L1533.72 691.24L1535.34 699.71L1535.12 691.06L1542.7 689.25Z" fill="white"/>
<path d="M122.06 996.6L124.87 1001.05L122.83 996.11L126.81 992.96L122.38 995.25L119.57 990.8L121.62 995.75L117.63 998.89L122.06 996.6Z" fill="white"/>
<path d="M1529.32 1000.29L1525.33 996.33L1528.62 1001.03L1525.07 1005.49L1529.28 1001.82L1533.27 1005.78L1529.99 1001.08L1533.53 996.62L1529.32 1000.29Z" fill="white"/>
<path d="M1234.91 1251.58L1234.95 1251.43L1234.44 1250.98L1234.91 1251.58Z" fill="white"/>
<path d="M1185.45 1386.75L1181.09 1380.09L1184.31 1387.52L1178.34 1392.39L1185 1388.8L1189.36 1395.46L1186.15 1388.03L1192.11 1383.16L1185.45 1386.75Z" fill="white"/>
<path d="M154.91 1281.82L149.73 1285.69L145.38 1280.7L148.74 1286.31L148.85 1286.49L144.38 1291.34L149.56 1287.47L153.9 1292.46L150.44 1286.67L151.78 1285.22L154.91 1281.82Z" fill="white"/>
<path d="M480.77 1406.22L477.17 1412.3L471.16 1409.44L476.61 1413.46L474.05 1420.17L477.65 1414.09L483.66 1416.95L478.21 1412.92L480.77 1406.22Z" fill="white"/>
<path d="M400.45 101.67C395.52 108.63 391.52 144.35 403.28 139.83C411.16 136.58 398.76 108.43 400.45 101.67Z" fill="#F4A800"/>
<path d="M623.45 50.28C625.22 49.21 626.67 47.19 627.8 45.54C633.02 37.94 638.21 30.78 644.25 23.82C649.85 17.28 651.25 7.48 656.85 1.87L657.79 0C651.81 2.79 647.2 8.42 643.46 13.66C639.51 19.19 633.79 23.17 628.85 27.73C623.79 32.4 617.22 37.84 616.89 45.19C616.7 49.48 619.06 52.94 623.45 50.28Z" fill="#F4A800"/>
<path d="M789.58 34.24C790.98 26.3 801.25 20.7 807.79 16.03C798.92 14.63 783.51 21.63 778.84 29.1C775.22 36.01 778.1 44.77 781.91 52.13C783.51 55.21 785.26 58.04 786.78 60.38C789.67 57.01 789.7 52.26 789.37 47.37C789.06 42.79 788.45 38.08 789.58 34.24Z" fill="#F4A800"/>
<path d="M1069.47 120.94C1076.73 116.9 1083.19 110.66 1088.84 104.66C1091.91 101.4 1094.91 97.94 1097.22 94.09C1098.63 91.75 1099.5 89.72 1099.92 87.61C1100.37 85.37 1100.31 83.04 1099.77 80.13C1099.01 76.06 1096.25 72.39 1092.19 71.1C1089.43 70.22 1087.27 71.04 1086.56 74.04C1086.19 75.58 1086.67 76.53 1086.95 78.01C1088.04 83.89 1087.29 90.2 1085.36 96.29C1082.3 105.9 1076.26 114.97 1069.47 120.94Z" fill="#F4A800"/>
<path d="M1218.85 219.09C1221.05 218.36 1223.24 217.16 1225.33 215.78C1228.03 213.99 1230.55 211.87 1232.54 209.68C1236.32 205.54 1237.65 197.86 1230 197.18C1221.54 196.42 1213.57 206.32 1207.45 211C1204.71 213.1 1201.84 215.07 1198.62 216.34L1197.4 216.83C1195.23 217.52 1191.39 218.31 1188.32 218.06C1187.12 217.96 1186.03 217.72 1185.21 217.23C1185.87 217.62 1186.59 217.93 1187.29 218.26C1196.56 222.74 1209.3 222.56 1218.85 219.09Z" fill="#F4A800"/>
<path d="M1422.81 616C1440.79 620.15 1452.07 636.21 1449.08 660.38C1467.99 639.91 1451.41 604.17 1422.81 616Z" fill="#F4A800"/>
<path d="M1445.71 706.73C1435.61 709.83 1427.17 717.22 1423.51 727.22C1421.88 731.66 1420.15 740.58 1423.18 744.74C1425.77 748.29 1430.63 747.86 1433.98 745.52C1437.78 742.87 1439.97 738.27 1442.85 734.8C1446.2 730.76 1449.66 726.44 1453.48 722.87C1457.37 719.23 1461.28 716.05 1466.24 714.02C1469.86 712.55 1474.93 712.54 1477.98 710.98C1467.39 706.03 1457.41 703.14 1445.71 706.73Z" fill="#F4A800"/>
<path d="M1437.56 965.33C1435.63 973.99 1427.44 990.89 1440.84 994.76C1450.17 997.45 1453.29 983.29 1453.97 976.47C1454.7 969.08 1454.62 960.91 1453.21 953.06C1451.7 944.71 1448.68 936.73 1443.4 930.45C1434.26 919.61 1421.71 920.48 1408.63 922.08C1411.47 921.73 1419.27 926.81 1422.03 928.09C1426.3 930.09 1431.63 932.56 1434.52 936.47C1440.53 944.6 1439.74 955.25 1437.73 964.59L1437.56 965.33Z" fill="#F4A800"/>
<path d="M1459.74 907.25C1450.38 902.16 1438.4 909.82 1428.88 909.49L1432.33 910.34C1449.59 914.6 1456.94 924.75 1469.2 935.98C1473.67 928.62 1468.02 911.57 1459.74 907.25Z" fill="#F4A800"/>
<path d="M153.98 298.66C177.6 297.04 197.6 282.27 182.08 257C182.91 272.78 167.32 291.09 153.98 298.66Z" fill="#F4A800"/>
<path d="M130.41 386.89C130.43 387.46 130.5 388 130.5 388.58C130.51 391.55 130.42 395.16 129.12 397.88C127.57 401.1 125.11 403.67 124.16 407.38L123.57 409.69C123.63 409.44 128.7 406.95 129.35 406.37C131.34 404.58 132.94 402.36 134.27 400.04C136.72 395.79 138.29 391.01 139.15 386.16V386.14C139.34 385.04 139.54 383.94 139.65 382.84C140.88 371.09 135.49 355.06 126.03 347.59C122.71 344.97 115.67 342.87 115.21 349.13C114.96 352.54 117.67 355.45 119.48 357.99C122.73 362.56 125.66 367.23 127.68 372.47C128.31 374.1 128.82 375.74 129.22 377.39C129.97 380.48 130.29 383.64 130.4 386.88L130.41 386.89Z" fill="#F4A800"/>
<path d="M88.15 577.21C90.73 573.73 89.45 567.43 89.19 563.37C88.77 556.87 86.9 550.88 83.95 545.49C78.97 536.4 70.92 529.05 61.58 523.95C55.02 520.38 41.08 517.28 41.67 529.2C41.8 531.91 42.56 534.07 43.76 535.84C48.6 542.98 60.65 543.65 67.98 547.42C69.11 548 70.1 548.66 71.04 549.35C80.47 556.28 81.18 568.42 88.15 577.21Z" fill="#F4A800"/>
<path d="M1298.75 1203.38C1299.81 1202 1299.57 1200.13 1298.57 1198C1294.67 1189.69 1278.62 1177.18 1277.06 1171.86C1276.57 1177.41 1282.63 1193.31 1289.08 1200.96C1292.5 1205.01 1296.02 1206.78 1298.75 1203.38Z" fill="#F4A800"/>
<path d="M414.99 1329.83C417.7 1328.19 423.52 1325.58 426.75 1326.6C418.96 1324.15 409.34 1325.38 401.18 1328.7C398.46 1329.8 395.91 1331.14 393.63 1332.64C389.13 1335.45 385.04 1340.39 382.51 1344.98C379.8 1349.89 380.3 1357.66 387.9 1356.55C392.28 1355.91 395.83 1352.48 398.94 1348.5C401.8 1344.83 404.27 1340.71 406.6 1337.84C409.03 1334.83 411.64 1331.87 414.99 1329.83Z" fill="#F4A800"/>
<path d="M281.32 1246.21C290.78 1239.62 304.09 1233.06 315.95 1236.45L317.08 1237.14C307.54 1227.42 255.92 1238.39 255.08 1254.92L255.11 1255.7C255.1 1268.79 267.33 1258.36 275.42 1251.17C277.98 1248.9 280.13 1246.95 281.32 1246.21Z" fill="#F4A800"/>
<path d="M97.28 1018.23C93.01 1025.87 92.5 1034.16 94.57 1041.37C99.11 1057.11 116.01 1067.72 133.19 1055.25C120.48 1055.36 109.55 1049.24 103.07 1037.51C100.16 1032.2 98.14 1025.76 97.28 1018.23Z" fill="#F4A800"/>
<path d="M51.72 821.57C41.89 817.71 30.68 818.25 21.59 823.79C17.55 826.25 10.6399 832.16 10.4199 837.3C10.2399 841.69 14.3099 844.38 18.3899 844.63C23.0099 844.91 27.5899 842.68 32.0099 841.76C37.1399 840.69 42.5399 839.46 47.7599 839.03C53.0699 838.6 58.11 838.54 63.25 840.05C67 841.15 70.9699 844.3 74.3299 844.97C69.1099 834.51 63.1 826.04 51.72 821.57Z" fill="#F4A800"/>
<path d="M35.4001 669.93C25.7001 669.49 25.9801 683.99 26.9201 690.78C27.3301 693.79 27.9601 696.91 28.7101 700.03C31.7501 712.64 37.6801 725.48 47.9501 733.05C51.4701 735.64 55.0501 737.07 58.6801 737.68C66.8101 739.04 75.1801 736.25 83.7201 733.07C82.4401 733.55 79.7601 733.08 76.9901 732.4C73.9701 731.66 70.8401 730.67 69.2901 730.35C64.6701 729.41 58.9101 728.25 55.1901 725.13C47.2501 718.46 45.6301 707.54 45.4701 697.79C45.4101 693.94 46.1301 688.3 45.8201 683.1C45.4201 676.32 43.2801 670.29 35.4001 669.93Z" fill="#F4A800"/>
<path d="M21.55 733.71C20.35 737.46 21.69 742.67 24.35 747.45V747.46C27.51 753.14 32.54 758.21 37.46 759.44C47.75 762.2 57.61 751.96 66.94 750.05L63.39 750.03C53.24 749.97 45.79 747.25 38.55 743.45C33.12 740.6 27.79 737.17 21.55 733.71Z" fill="#F4A800"/>
<path d="M1373.61 1116.66C1371.51 1109.57 1372.79 1101.11 1375.88 1093.03C1379.39 1083.84 1385.24 1075.16 1391.2 1069.58C1375.41 1074.54 1362.9 1085.34 1363.93 1098.54C1364.37 1104.22 1367.29 1110.35 1373.61 1116.66Z" fill="#F4A800"/>
<path d="M1436.14 1040.21C1434.43 1036.88 1433.2 1033.37 1432.28 1029.62C1431.58 1026.74 1430.82 1023.21 1431.45 1020.26C1432.21 1016.77 1433.99 1013.69 1434.05 1009.86L1434.09 1007.48C1434.08 1007.74 1429.74 1011.34 1429.25 1012.06C1427.73 1014.27 1426.69 1016.8 1425.94 1019.36C1424.24 1025.14 1423.93 1031.4 1424.72 1037.35C1425.57 1043.77 1428.7 1050.92 1433.11 1056.95C1434.51 1058.86 1436.02 1060.65 1437.65 1062.26C1440.28 1064.86 1443.15 1067.04 1446.21 1068.45C1450.05 1070.22 1457.38 1070.62 1456.37 1064.43C1455.82 1061.06 1452.5 1058.86 1450.15 1056.81L1449.33 1056.07C1445.45 1052.64 1441.83 1049.02 1438.86 1044.74L1438.78 1044.64C1437.8 1043.2 1436.92 1041.72 1436.14 1040.21Z" fill="#F4A800"/>
<path d="M1492.67 796.91C1486.29 791.09 1474.42 793.26 1466.41 791.31C1452.81 788.01 1449.55 774.67 1439.84 767.06C1438.14 771.04 1440.86 776.87 1442.06 780.76C1447.24 797.5 1461.76 808.22 1478.11 812.63C1485.32 814.57 1499.61 814.33 1496.24 802.87C1495.49 800.28 1494.24 798.35 1492.67 796.91Z" fill="#F4A800"/>
<path d="M885.69 267.09C889.76 260.99 895.72 255.37 886.98 250.83C874.57 244.34 835.19 270.65 812.41 286.11C822.88 293.32 832.94 301.06 842.6 309.27C859.55 297.2 874.72 283.53 885.69 267.09Z" fill="#FCD000"/>
<path d="M1048.83 759.35C1008.59 772.07 966.18 784.55 923.68 780.64C910.31 803.61 894.62 825.07 876.81 844.59L876.74 844.67C914.45 842.11 953.74 831.28 981.42 823.65C1058.42 802.56 1130.41 768.25 1202.08 735.83C1202.66 732.27 1203.3 728.73 1203.81 725.15C1205.37 714.42 1206.56 703.59 1207.46 692.67L1207.39 692.7C1156.59 719.1 1104.42 741.75 1048.83 759.35Z" fill="#FCD000"/>
<path d="M361.28 878.54C346.86 866.39 333.4 853.14 320.97 838.97C276.38 858.08 232.03 876.79 186.21 893.4C188.44 897.75 190.72 902.08 193.07 906.35C197.65 914.83 202.57 923.13 207.65 931.34L207.7 931.42C228.54 926.01 249.12 919.77 269.3 912.41C300.24 901.14 330.46 889.31 361.28 878.54Z" fill="#FCD000"/>
<path d="M1051.74 638.62C1035.82 635.3 1035.61 624.73 1046.52 614.64C1055.8 606.04 1071.79 601.43 1083.71 596.48C1105.53 587.54 1126.12 577.72 1145.77 565.32C1163.34 554.23 1180.29 542.75 1196.76 530.86C1193.01 513.68 1188.44 496.92 1183.04 480.44C1177.23 462.32 1170.43 444.61 1162.75 427.43C1157.65 415.94 1152.14 404.62 1146.21 393.59C1137.41 376.97 1127.67 360.91 1117.21 345.38C1086.75 367.86 1054.72 388.44 1018.94 404.54C994.96 415.24 965.82 429.47 938.32 419.92C934.32 418.53 931.25 416.96 928.91 415.25C936.49 429.16 943.12 443.64 948.91 458.55C989.73 440.42 1041.7 421.45 1057.49 439.63C1078.63 463.95 1033.71 519.1 1019.55 538.34C1005.14 557.91 988.74 576.61 974.08 596.13C973.78 637.51 966.7 677.25 953.96 714.38C971.75 725.11 999.74 726.16 1027 719.57C1058.71 711.91 1085.4 699.99 1112.84 684.27C1144.99 665.97 1177.38 647.98 1209.02 628.98C1208.9 625.47 1208.79 621.96 1208.6 618.46C1207.78 603.37 1206.35 588.42 1204.35 573.67C1179.74 589.59 1153.79 603.88 1126.6 616.18C1107.3 624.94 1075.11 643.57 1051.74 638.62Z" fill="#FCD000"/>
<path d="M802.16 907.42L802 907.52C813.22 906.15 824.4 904.5 835.48 902.5C871.25 896 905.53 880.96 941.78 876.62C959.06 874.52 1012.92 880.96 984.39 903.79C965.15 919.24 926.6 927.57 902.35 931.77C868.2 937.6 831.76 933.73 797.2 935.29C779.3 936.08 760.09 937.85 740.46 939.27C697.46 956.58 650.54 966.2 601.35 966.2C569.09 966.2 537.79 962.1 507.93 954.39C492.58 959 475.1 962.2 470.65 963.54C408.8 982.05 348.24 1005.96 290.79 1034.88C299.3 1043.16 307.98 1051.28 317.04 1058.98C326.46 1067.07 336.17 1074.79 346.12 1082.18C378.91 1066.77 416.22 1056.82 448.49 1049.58C515.16 1034.68 595.71 1028.17 662.17 1046.4C724.16 1063.41 777.62 1082.31 843.94 1073.3C916.01 1063.54 986.17 1045.68 1055.3 1025.45C1063.86 1016.69 1072.2 1007.7 1080.18 998.35V998.29C1089.02 987.95 1097.38 977.21 1105.42 966.22C1096.19 969.95 1086.89 973.5 1077.47 976.82C996.03 1005.61 917.31 1023.7 830.45 1031.7C791.63 1035.23 745.42 1030.48 713.65 1008.6C700.51 999.66 679.84 980.69 689.8 964.63C703.28 942.95 748.54 952.64 770.42 954.47C810.46 957.86 849.82 962.12 890.06 962.87C955.17 964.02 1028.34 938.41 1078.74 902.78C1092.83 892.82 1108.28 875.55 1100.35 858.54C1087.55 830.9 1036.67 837.81 1011.12 841.33C954.33 849.25 899.22 864.93 843.32 876.85C830.37 887.96 816.61 898.17 802.16 907.42Z" fill="#FCD000"/>
<path d="M775.05 249.81C818.08 221.6 861 191.5 901.99 159.34L901.92 159.31C880.61 149.09 858.53 140.26 835.79 132.88C827.98 139.99 820.09 146.96 812.04 153.68C777.92 182.29 742.13 208.19 707.63 236.05C726.82 241.75 745.39 248.87 763.14 257.44C767.13 254.91 771.12 252.39 775.05 249.81Z" fill="#FCD000"/>
<path d="M373.36 949.8C397.26 942.16 421.31 935.87 445.96 932.27C427.76 923.91 410.32 914.2 393.84 903.14L393.83 903.13C393.22 903.37 392.59 903.62 391.99 903.86C339.17 925.19 288.27 949.98 237.09 974.3C243.59 982.87 250.29 991.27 257.28 999.41L257.7 999.89L257.71 999.88C294.54 980.25 332.6 962.81 373.36 949.8Z" fill="#FCD000"/>
<path d="M312.17 358.16C284.56 368.77 256.84 379.18 228.99 389.44C214.15 412.07 200.74 435.71 188.88 460.3C215.8 447.71 242.42 434.52 269.77 423.03C281.68 399.9 295.88 378.16 312.17 358.16Z" fill="#FCD000"/>
<path d="M931.22 389.58C948.7 368.37 981.02 354.22 1004.73 339.45C1029.12 324.27 1052.11 307.47 1075.21 290.8C1066.62 281 1057.7 271.48 1048.42 262.36C1042.09 256.09 1035.58 250 1028.94 244.05C1011.91 259.42 994.53 274.43 976.75 289.04C948.32 312.33 917.73 333.29 885.79 352.51C899.8 369.03 912.37 386.79 923.37 405.6C923.4 400.95 926.25 395.61 931.22 389.58Z" fill="#FCD000"/>
<path d="M540.44 1129.06C511.89 1131.87 484.31 1138.5 456.82 1145.5C474.35 1152.98 492.35 1159.57 510.81 1165.16L618.32 1131.64L514.92 1166.35C518.95 1167.53 522.96 1168.78 527.03 1169.87H527.09C532.38 1171.3 537.72 1172.64 543.08 1173.92C562.65 1174.07 579.17 1176.57 589.36 1182.73C615.14 1186.5 641.49 1188.51 668.3 1188.51C756.32 1188.51 839.41 1167.52 912.89 1130.22L913.07 1130.16C923.12 1125.04 932.99 1119.6 942.68 1113.89C919.8 1117.45 896.84 1120.34 873.84 1122.34C762.92 1132.04 650.8 1118.22 540.44 1129.06Z" fill="#FCD000"/>
<path d="M462.73 217.97C497.01 204.28 528.99 188.5 567 187.21C592.68 186.4 609.68 196.29 594.17 219.8L593.45 220.78C596.09 220.73 598.71 220.58 601.36 220.58C609.58 220.58 617.71 220.94 625.8 221.46L625.96 221.47C631.14 216.91 636.17 212 641.05 206.64C659.68 186.18 696.27 146.55 675.74 117.14C674.25 114.97 672.62 113.14 670.86 111.58C539.09 128.72 420.32 186.92 327.57 272.82C373.36 256.18 417.61 235.99 462.73 217.97Z" fill="#FCD000"/>
<path d="M363.78 306.09C400.41 275.77 442.93 252.33 489.37 237.72L489.55 237.67C474.35 240.07 454.42 246.78 450 248.25C407.66 262.14 365.72 277.04 323.65 291.68C315.72 294.39 307.86 297.17 300.01 299.95C286.19 314.45 273.05 329.63 260.58 345.41C280.5 338.43 300.21 331.18 319.45 323.26C334.08 317.22 348.9 311.6 363.78 306.09Z" fill="#FCD000"/>
<path d="M228.94 609.14C228.72 603.91 228.54 598.67 228.54 593.39C228.54 563.66 232.12 534.78 238.7 507.06C212.16 518.23 185.12 528.53 157.72 538.01C148.1 567.41 140.65 597.76 135.57 628.93C166.78 622.08 197.9 615.71 228.94 609.14Z" fill="#FCD000"/>
<path d="M129.63 698.7C130.92 712.95 132.8 727.02 135.2 740.86C135.38 741.86 135.58 742.85 135.77 743.85C172.01 735 207.91 724.85 242.75 716.8C244.85 716.31 246.94 715.78 249.04 715.29L249.03 715.25C242.55 696.5 237.52 677.08 234.08 657.1C212.32 662.59 190.52 667.92 168.7 672.9C155.63 675.88 142.41 678.52 129.2 681.03C128.44 690.43 127.95 699.88 127.61 709.37C127.89 702.22 128.28 695.1 128.77 688C129.05 691.58 129.27 695.16 129.63 698.7Z" fill="#FCD000"/>
<path d="M266.99 758.31C240.86 765.17 214.66 771.79 188.41 777.92C174.37 781.17 160 784.34 145.5 787.43C146.44 790.96 147.38 794.48 148.4 797.98C151.45 808.59 154.85 819.03 158.54 829.35C159.04 830.76 159.59 832.16 160.1 833.57C203.51 822.64 246.53 810.61 289.15 797.06C281.02 784.64 273.61 771.71 266.99 758.31Z" fill="#FCD000"/>
<path d="M527.03 1169.88C522.96 1168.79 518.95 1167.54 514.92 1166.36L475.46 1179.6C498.75 1176.16 522.54 1173.78 543.06 1173.93H543.08C537.72 1172.65 532.39 1171.31 527.09 1169.88H527.03Z" fill="#F8BB00"/>
<path d="M1207.45 692.67C1206.55 703.59 1205.36 714.43 1203.8 725.15C1203.29 728.73 1202.66 732.27 1202.07 735.83C1130.4 768.25 1058.41 802.55 981.41 823.65C953.74 831.28 914.45 842.1 876.73 844.67C866.31 856.08 855.14 866.78 843.39 876.83L843.36 876.86C899.26 864.94 954.36 849.25 1011.16 841.34C1036.7 837.82 1087.58 830.91 1100.39 858.55C1108.32 875.56 1092.87 892.83 1078.78 902.79C1028.38 938.42 955.21 964.03 890.1 962.88C849.86 962.13 810.49 957.87 770.46 954.48C748.58 952.65 703.32 942.96 689.84 964.64C679.88 980.7 700.54 999.67 713.69 1008.61C745.46 1030.49 791.67 1035.24 830.49 1031.71C917.34 1023.72 996.07 1005.63 1077.51 976.83C1086.92 973.51 1096.23 969.96 1105.46 966.23C1097.42 977.22 1089.06 987.96 1080.22 998.3V998.36C1072.24 1007.7 1063.91 1016.69 1055.34 1025.46C1066.8 1022.11 1078.23 1018.71 1089.64 1015.25C1176.29 989.03 1265.99 961.66 1342.28 915.73C1345.4 913.9 1348.44 912 1351.56 910.04C1360.23 881.32 1366.73 851.64 1371.07 821.29C1340.99 839.85 1310.37 857.94 1279.47 876.03C1223.68 908.69 1166.54 941.54 1105.47 966.22C1116.3 951.42 1126.46 936.12 1135.75 920.2V920.14C1146.13 902.37 1155.57 884.02 1163.9 864.96C1172.87 844.61 1180.61 823.62 1186.95 801.98C1193.43 780.51 1198.43 758.39 1202.11 735.85C1204.1 734.95 1206.09 734.04 1208.07 733.15C1266.54 706.79 1319.38 674.68 1370.67 638.64C1368.57 624.55 1366 610.59 1362.95 596.84C1316.75 629.77 1269.73 659.71 1218.64 686.88C1214.9 688.83 1211.17 690.74 1207.45 692.67Z" fill="#F8BB00"/>
<path d="M193.08 906.35C190.72 902.07 188.45 897.75 186.22 893.4C232.03 876.79 276.38 858.07 320.98 838.97C309.42 825.79 298.79 811.8 289.16 797.07C246.54 810.62 203.53 822.65 160.11 833.58C159.59 832.17 159.05 830.78 158.55 829.36C154.86 819.04 151.45 808.6 148.41 797.99C147.4 794.49 146.46 790.96 145.51 787.44C140.35 788.54 135.23 789.67 130.02 790.73C131.51 807.19 133.68 823.45 136.46 839.44C144.38 837.52 152.27 835.55 160.17 833.57C165.71 848.69 171.8 863.56 178.67 878.04C181.1 883.22 183.63 888.33 186.23 893.41C174.81 897.55 163.34 901.6 151.71 905.44C155.23 917.7 159.16 929.76 163.43 941.69C178.3 938.64 193.04 935.16 207.68 931.36C202.58 923.13 197.66 914.83 193.08 906.35Z" fill="#F8BB00"/>
<path d="M231.73 1014.17C240.32 1009.3 248.97 1004.54 257.69 999.89L257.71 999.88L257.29 999.4C250.31 991.26 243.6 982.86 237.1 974.29C228.75 978.26 220.4 982.21 212.03 986.13C203.59 990.09 195.14 994.01 186.65 997.89C191.87 1009 197.42 1019.91 203.32 1030.61C211.9 1025.52 220.53 1020.53 229.19 1015.59C230.03 1015.12 230.88 1014.65 231.73 1014.17Z" fill="#F8BB00"/>
<path d="M1274.77 520.74C1269.26 525.52 1263.66 530.21 1257.97 534.81L1256.84 535.69C1240.11 549.17 1222.61 561.89 1204.36 573.69C1206.37 588.44 1207.8 603.39 1208.61 618.48C1208.8 621.98 1208.91 625.49 1209.03 629C1209.6 628.66 1210.18 628.33 1210.74 627.99C1256.54 600.28 1302.54 570.34 1347.05 538.56C1340.34 517.62 1332.48 497.17 1323.61 477.32C1307.63 491.95 1291.3 506.45 1274.77 520.74Z" fill="#F8BB00"/>
<path d="M934.26 133.28C908.58 125.42 882.16 119.19 855.2 114.78C848.79 120.92 842.32 126.94 835.79 132.87C858.53 140.25 880.61 149.08 901.92 159.3C912.83 150.75 923.67 142.13 934.26 133.28Z" fill="#F8BB00"/>
<path d="M135.2 740.86C132.8 727.02 130.92 712.95 129.63 698.7C129.27 695.15 129.05 691.57 128.77 688.01C128.28 695.11 127.88 702.23 127.61 709.38C127.33 716.72 127.17 724.09 127.17 731.51C127.17 736.32 127.24 741.13 127.37 745.94C130.18 745.27 132.96 744.54 135.77 743.86C135.58 742.86 135.37 741.87 135.2 740.86Z" fill="#F8BB00"/>
<path d="M290.15 1120.4C290.95 1119.56 291.82 1118.76 292.65 1117.93C294.24 1116.36 295.83 1114.8 297.51 1113.29C298.57 1112.34 299.68 1111.41 300.77 1110.48C302.3 1109.18 303.86 1107.9 305.46 1106.65C306.7 1105.68 307.96 1104.72 309.25 1103.78C310.78 1102.65 312.34 1101.55 313.93 1100.46C315.33 1099.5 316.72 1098.54 318.16 1097.61C319.68 1096.63 321.23 1095.68 322.78 1094.73C324.34 1093.78 325.89 1092.81 327.48 1091.89C328.87 1091.09 330.31 1090.33 331.72 1089.55C336.41 1086.98 341.2 1084.5 346.13 1082.18C336.17 1074.79 326.46 1067.07 317.05 1058.98C307.99 1051.27 299.31 1043.16 290.8 1034.88C286.35 1037.12 281.93 1039.4 277.52 1041.7C271.01 1045.1 264.51 1048.51 258.09 1052.04C255.72 1053.34 253.39 1054.67 251.03 1055.98C242.85 1060.56 234.71 1065.19 226.69 1069.98C242.07 1093.83 259.07 1116.66 277.5 1138.14C278.52 1135.02 280.48 1131.64 283.46 1127.98C285.56 1125.37 287.81 1122.85 290.15 1120.4Z" fill="#F8BB00"/>
<path d="M376.83 1199.33L377.67 1199.13C378.48 1198.93 379.35 1198.72 380.27 1198.5C381.06 1198.31 381.88 1198.11 382.76 1197.9C383.51 1197.72 384.28 1197.54 385.09 1197.34C385.89 1197.15 386.72 1196.95 387.58 1196.75C388.14 1196.62 388.72 1196.48 389.3 1196.35C391.08 1195.94 392.95 1195.5 394.93 1195.05C395.38 1194.95 395.81 1194.85 396.27 1194.74C397.56 1194.45 398.88 1194.15 400.24 1193.84L400.8 1193.72C415.05 1190.52 433.09 1186.74 452.54 1183.32L510.81 1165.15C492.35 1159.56 474.35 1152.98 456.82 1145.49L456.78 1145.5C450.95 1146.98 445.13 1148.48 439.3 1149.96C438.67 1150.12 438.04 1150.27 437.41 1150.43C433.72 1151.37 430.03 1152.3 426.33 1153.21C422.03 1154.27 417.71 1155.31 413.39 1156.32C411.75 1156.7 410.1 1157.05 408.46 1157.43C405.46 1158.11 402.45 1158.78 399.44 1159.42C397.6 1159.81 395.75 1160.17 393.91 1160.53C391.05 1161.1 388.19 1161.66 385.32 1162.18C383.42 1162.52 381.52 1162.85 379.62 1163.17C376.72 1163.65 373.81 1164.1 370.89 1164.52C369.05 1164.79 367.2 1165.05 365.35 1165.29C362.17 1165.7 358.98 1166.04 355.78 1166.36C354.18 1166.52 352.6 1166.71 351 1166.84C346.2 1167.24 341.38 1167.56 336.52 1167.72C326.7 1168.06 313.01 1167.18 301.16 1164.2C315.59 1179.17 330.7 1193.47 346.55 1206.95C355.77 1204.51 364.98 1202.21 374.12 1199.97C374.9 1199.8 375.83 1199.58 376.83 1199.33Z" fill="#F8BB00"/>
<path d="M1117.22 345.39C1127.68 360.92 1137.42 376.98 1146.22 393.6C1152.14 404.63 1157.65 415.94 1162.76 427.44C1170.44 444.62 1177.24 462.33 1183.05 480.45C1188.44 496.92 1193.02 513.69 1196.77 530.87L1196.8 530.85C1208.75 522.22 1220.42 513.34 1231.84 504.2C1233.42 502.94 1235 501.67 1236.57 500.4C1239.59 497.94 1242.6 495.47 1245.59 492.98C1248.98 490.14 1252.34 487.27 1255.68 484.38C1258.21 482.19 1260.72 479.99 1263.23 477.77C1267.04 474.38 1270.83 470.96 1274.58 467.5C1276.15 466.05 1277.71 464.6 1279.27 463.14C1284.26 458.45 1289.22 453.72 1294.11 448.88C1297.63 445.36 1301.15 441.84 1304.54 438.24C1292.35 415.2 1278.66 393.05 1263.75 371.85H1263.68C1255.28 376.93 1246.34 380.18 1237.26 379.91C1220.6 379.37 1218.29 372.19 1221.61 358.77C1222.83 353.82 1228.11 344.95 1235.02 334.18C1221.34 317.58 1206.84 301.66 1191.53 286.62C1167 306.54 1142.65 326.62 1117.22 345.39Z" fill="#F8BB00"/>
<path d="M1308.58 746.68C1288.86 760.37 1266.03 773.78 1249.16 790.31C1241.57 797.7 1231.88 805.89 1240.62 814.5C1252.34 826.08 1287.16 807.52 1296.38 803.32C1324.84 790.45 1351.53 774.73 1376.93 757.32C1377.27 748.78 1377.47 740.18 1377.47 731.51C1377.47 720.27 1377.2 709.15 1376.59 698.04C1354.04 714.44 1331.54 730.76 1308.58 746.68Z" fill="#F8BB00"/>
<path d="M1292.33 999.75C1287 1002.44 1281.66 1005.11 1276.28 1007.73C1272.83 1009.41 1269.35 1011.06 1265.88 1012.71C1261.14 1014.97 1256.38 1017.2 1251.6 1019.4C1247.75 1021.17 1243.9 1022.92 1240.03 1024.65C1235.64 1026.62 1231.23 1028.55 1226.81 1030.47C1222.62 1032.29 1218.44 1034.11 1214.23 1035.88C1210.26 1037.55 1206.28 1039.17 1202.29 1040.8C1197.63 1042.71 1192.98 1044.63 1188.29 1046.48C1186.05 1047.36 1183.79 1048.2 1181.55 1049.07C1168.64 1054.08 1155.64 1058.89 1142.54 1063.47C1141.63 1063.79 1140.74 1064.12 1139.83 1064.43C1133.31 1066.69 1126.76 1068.86 1120.2 1071.01C1118.27 1071.64 1116.34 1072.29 1114.4 1072.91C1107.87 1075.01 1101.31 1077.04 1094.74 1079.03C1092.89 1079.59 1091.03 1080.15 1089.18 1080.71C1082.34 1082.74 1075.48 1084.72 1068.61 1086.63C1067.34 1086.98 1066.06 1087.33 1064.78 1087.68C1024.57 1098.7 983.78 1107.54 942.68 1113.93C932.99 1119.64 923.13 1125.08 913.07 1130.2L912.89 1130.26C839.41 1167.55 756.32 1188.55 668.3 1188.55C641.48 1188.55 615.13 1186.54 589.36 1182.77C590.7 1183.58 591.94 1184.45 593.05 1185.39L593.18 1185.51C594.23 1186.41 595.2 1187.35 596.02 1188.37L596.65 1189.3C597.24 1190.11 597.84 1190.92 598.29 1191.81C598.93 1193.07 599.44 1194.4 599.78 1195.82C591.72 1204.29 584.2 1203.88 573.02 1207.54C535.28 1219.8 496.74 1229.56 458.79 1241.48C443.41 1246.29 427.69 1250.96 411.91 1255.84C437.79 1272.78 465.03 1287.75 493.41 1300.62C515.9 1292.83 538.53 1285.78 561.7 1280.63C596.73 1272.7 633.11 1266.27 669.22 1264.1C685.01 1263.22 745.23 1255.7 757.77 1271.75C777.28 1296.75 665.9 1316.26 651.81 1319.99C635.28 1324.33 613.26 1329.13 589.21 1335.1C641.17 1349.19 695.91 1356.64 752.35 1356.64C854.04 1356.64 950.04 1332.38 1034.93 1289.3C1026.33 1291.2 1017.79 1293.03 1009.19 1294.79C977.96 1301.02 934.46 1312.07 904.24 1296.69C890.29 1263.49 1120.29 1219.39 1153.42 1209.63C1154.03 1209.43 1154.98 1209.16 1156.13 1208.75C1182.08 1186.8 1206.13 1162.82 1228.21 1136.94C1220.89 1139.11 1214.32 1141.14 1209.85 1142.36C1171.44 1152.52 1134.99 1165.94 1097.66 1178.88C1026.05 1203.74 946.58 1223.12 870.9 1235.32C853.96 1238.1 689.94 1261.06 706.54 1221.7C714.33 1203.34 771.24 1194.4 789.19 1190.2C847.32 1176.51 907.08 1168.11 965.48 1155.44C1077.94 1131.05 1183.43 1097.38 1285.93 1049.55C1288.03 1048.53 1290.2 1047.58 1292.37 1046.64V1046.57C1304.36 1026.04 1315.27 1004.84 1324.89 982.82C1316.9 987.14 1308.84 991.38 1300.72 995.54C1297.95 996.95 1295.13 998.33 1292.33 999.75Z" fill="#F8BB00"/>
<path d="M1028.91 244.07C1021.21 237.18 1013.34 230.46 1005.25 224.01C987.77 210.11 969.42 197.21 950.24 185.54C934.67 176 918.55 167.28 901.99 159.34C861 191.5 818.08 221.61 775.05 249.81C771.11 252.39 767.12 254.91 763.14 257.43C780.35 265.73 796.79 275.37 812.4 286.11C835.18 270.64 874.56 244.34 886.97 250.83C895.71 255.37 889.75 260.99 885.68 267.09C874.71 283.54 859.54 297.2 842.59 309.28C858.14 322.49 872.58 336.95 885.77 352.51C917.71 333.29 948.3 312.34 976.73 289.04C994.51 274.44 1011.89 259.42 1028.92 244.05C1035.56 249.99 1042.07 256.09 1048.4 262.36C1057.68 271.48 1066.6 280.99 1075.19 290.8C1081.16 286.5 1087.12 282.19 1093.13 277.93C1108.92 266.75 1125.31 254.89 1141.64 242.29C1121.45 226.23 1100.24 211.33 1078.09 197.85C1062.01 213.56 1045.63 228.98 1028.91 244.07Z" fill="#F8BB00"/>
<path d="M1117.18 345.33C1115.11 342.25 1113.05 339.16 1110.91 336.13H1110.85C1103.05 324.93 1094.72 314.08 1086.04 303.53C1082.49 299.22 1078.75 295.08 1075.07 290.88C1081.08 286.55 1087.08 282.21 1093.12 277.93C1087.11 282.19 1081.15 286.49 1075.18 290.8C1052.08 307.47 1029.1 324.26 1004.7 339.45C980.99 354.22 948.67 368.38 931.19 389.58C926.23 395.62 923.37 400.96 923.34 405.6C925.22 408.81 927.12 412 928.9 415.26C931.24 416.97 934.32 418.53 938.31 419.93C965.82 429.48 994.95 415.26 1018.93 404.55C1054.71 388.45 1086.73 367.87 1117.2 345.39C1142.63 326.63 1166.98 306.54 1191.49 286.6C1167 306.54 1142.61 326.57 1117.18 345.33Z" fill="#FFED5A"/>
<path d="M1231.83 504.19C1233.41 502.93 1234.99 501.66 1236.56 500.39C1234.99 501.67 1233.4 502.93 1231.83 504.19Z" fill="#FFED5A"/>
<path d="M1263.2 477.75C1267.01 474.36 1270.8 470.94 1274.55 467.48C1270.8 470.95 1267.01 474.36 1263.2 477.75Z" fill="#FFED5A"/>
<path d="M1204.28 573.74C1203.98 571.52 1203.78 569.26 1203.45 567.05C1201.63 554.85 1199.4 542.77 1196.77 530.87L1196.76 530.86C1180.29 542.75 1163.35 554.23 1145.77 565.32C1126.12 577.72 1105.53 587.54 1083.71 596.48C1071.79 601.43 1055.8 606.03 1046.52 614.64C1035.61 624.74 1035.82 635.3 1051.74 638.62C1075.11 643.57 1107.29 624.93 1126.6 616.2C1153.79 603.9 1179.74 589.62 1204.35 573.69C1222.6 561.89 1240.1 549.17 1256.83 535.69C1240.08 549.19 1222.56 561.92 1204.28 573.74Z" fill="#FFED5A"/>
<path d="M1245.57 492.96C1248.96 490.12 1252.32 487.25 1255.66 484.36C1252.32 487.26 1248.95 490.13 1245.57 492.96Z" fill="#FFED5A"/>
<path d="M1274.77 520.74C1269.26 525.52 1263.66 530.21 1257.97 534.81C1263.66 530.21 1269.26 525.51 1274.77 520.74Z" fill="#FFED5A"/>
<path d="M312.17 358.16C327.61 339.2 344.85 321.77 363.68 306.17L363.78 306.09C348.91 311.59 334.08 317.21 319.44 323.24C300.2 331.17 280.48 338.42 260.57 345.39C249.46 359.55 238.89 374.25 229 389.43C256.84 379.18 284.56 368.77 312.17 358.16Z" fill="#FFED5A"/>
<path d="M449.99 248.25C454.41 246.78 474.34 240.07 489.54 237.67C522.44 227.34 557.31 221.54 593.44 220.78L594.16 219.8C609.68 196.29 592.67 186.4 566.99 187.21C528.98 188.5 497 204.28 462.72 217.97C417.6 235.99 373.36 256.18 327.56 272.85L327.49 272.92C318.07 281.59 308.86 290.67 299.98 299.95C307.84 297.17 315.7 294.4 323.62 291.68C365.71 277.05 407.65 262.14 449.99 248.25Z" fill="#FFED5A"/>
<path d="M234.07 657.1C231.37 641.42 229.61 625.43 228.93 609.14C197.9 615.71 166.77 622.07 135.56 628.93V629C132.71 646.14 130.55 663.48 129.19 681.03C142.4 678.52 155.61 675.88 168.69 672.9C190.51 667.92 212.31 662.59 234.07 657.1Z" fill="#FFED5A"/>
<path d="M1028.9 491.65L965.31 513C971.04 538.9 974.16 565.77 974.16 593.4C974.16 594.33 974.1 595.23 974.09 596.16C988.75 576.63 1005.15 557.94 1019.56 538.37C1033.72 519.13 1078.64 463.98 1057.5 439.66C1041.7 421.47 989.74 440.45 948.92 458.58C955.56 475.67 960.91 493.39 965.01 511.59L1028.9 491.65Z" fill="#F4A800"/>
<path d="M188.41 777.92C214.65 771.79 240.86 765.18 266.99 758.31C260.13 744.44 254.15 730.07 249.04 715.29C246.94 715.79 244.86 716.31 242.75 716.8C207.91 724.85 172 735 135.77 743.85C132.97 744.53 130.18 745.26 127.37 745.93C130.19 745.26 132.99 744.53 135.81 743.84C138.48 758.59 141.83 773.08 145.65 787.39C140.44 788.5 135.28 789.64 130.02 790.72C135.23 789.65 140.35 788.53 145.51 787.43C160 784.34 174.37 781.16 188.41 777.92Z" fill="#F4A800"/>
<path d="M1112.85 684.29C1085.41 700.01 1058.72 711.93 1027.01 719.59C999.75 726.18 971.75 725.13 953.97 714.4C946.01 737.6 935.84 759.76 923.68 780.64C966.18 784.55 1008.59 772.07 1048.83 759.35C1104.42 741.74 1156.59 719.09 1207.39 692.7C1208.02 685.1 1208.59 677.48 1208.91 669.79C1209.2 662.4 1209.38 654.95 1209.38 647.45C1209.38 641.26 1209.24 635.12 1209.04 629C1209.61 628.66 1210.19 628.33 1210.75 627.99C1210.18 628.33 1209.61 628.66 1209.04 629C1177.39 648 1145 665.98 1112.85 684.29Z" fill="#F4A800"/>
<path d="M797.21 935.3C831.76 933.74 868.21 937.6 902.36 931.78C926.61 927.58 965.16 919.25 984.4 903.8C1012.92 880.97 959.06 874.53 941.79 876.63C905.54 880.97 871.26 896.01 835.49 902.51C824.4 904.51 813.23 906.16 802.01 907.53C782.64 919.93 762.07 930.58 740.47 939.28C760.09 937.85 779.31 936.09 797.21 935.3Z" fill="#F4A800"/>
<path d="M392 903.86C392.6 903.62 393.23 903.37 393.84 903.13C382.52 895.53 371.68 887.3 361.28 878.54C330.46 889.31 300.24 901.14 269.31 912.4C249.14 919.76 228.56 926 207.71 931.41C209.57 934.42 211.38 937.45 213.31 940.42C220.79 952.02 228.76 963.31 237.1 974.3C228.75 978.27 220.4 982.22 212.03 986.14C220.4 982.22 228.76 978.26 237.1 974.3C288.28 949.98 339.18 925.2 392 903.86Z" fill="#F4A800"/>
<path d="M470.65 963.55C475.11 962.21 492.58 959.01 507.93 954.4C486.45 948.86 465.76 941.36 445.96 932.27C421.31 935.87 397.26 942.16 373.36 949.8C332.59 962.82 294.54 980.26 257.71 999.89C264.15 1007.4 270.8 1014.76 277.69 1021.94L277.75 1022C281.99 1026.4 286.4 1030.64 290.79 1034.9C348.24 1005.97 408.8 982.06 470.65 963.55Z" fill="#F4A800"/>
<path d="M257.69 999.89C248.98 1004.54 240.33 1009.3 231.73 1014.17C240.33 1009.31 248.98 1004.54 257.69 999.89Z" fill="#F4A800"/>
<path d="M203.32 1030.62C211.9 1025.53 220.52 1020.53 229.19 1015.6C220.53 1020.54 211.9 1025.53 203.32 1030.62Z" fill="#F4A800"/>
<path d="M277.51 1041.71C271 1045.1 264.51 1048.53 258.08 1052.05C264.5 1048.52 271 1045.1 277.51 1041.71Z" fill="#F4A800"/>
<path d="M251.03 1055.98C242.84 1060.55 234.71 1065.19 226.69 1069.98C234.71 1065.19 242.85 1060.56 251.03 1055.98Z" fill="#F4A800"/>
<path d="M843.95 1073.3C777.62 1082.31 724.17 1063.41 662.18 1046.4C595.72 1028.18 515.16 1034.68 448.5 1049.58C416.23 1056.82 378.92 1066.77 346.13 1082.18C341.2 1084.5 336.41 1086.97 331.72 1089.55C336.41 1086.98 341.2 1084.5 346.13 1082.18C355.09 1088.83 364.25 1095.2 373.63 1101.26C396.03 1115.92 419.61 1128.88 444.18 1140.02C448.35 1141.93 452.59 1143.69 456.82 1145.49C484.31 1138.49 511.9 1131.86 540.44 1129.05C650.8 1118.21 762.93 1132.03 873.83 1122.34C896.84 1120.35 919.79 1117.45 942.67 1113.89C983.77 1107.5 1024.56 1098.66 1064.77 1087.64C1024.56 1098.64 983.76 1107.5 942.67 1113.89C969.25 1098.22 994.41 1080.4 1017.79 1060.5C1030.88 1049.43 1043.34 1037.68 1055.31 1025.44C986.18 1045.68 916.02 1063.54 843.95 1073.3Z" fill="#FFED5A"/>
<path d="M1094.74 1079.02C1101.31 1077.03 1107.87 1075.01 1114.4 1072.9C1107.86 1075 1101.31 1077.03 1094.74 1079.02Z" fill="#FFED5A"/>
<path d="M1214.23 1035.87C1218.44 1034.1 1222.63 1032.28 1226.81 1030.46C1222.62 1032.28 1218.44 1034.1 1214.23 1035.87Z" fill="#FFED5A"/>
<path d="M1068.6 1086.61C1075.48 1084.7 1082.33 1082.73 1089.17 1080.69C1082.34 1082.73 1075.48 1084.71 1068.6 1086.61Z" fill="#FFED5A"/>
<path d="M1240.03 1024.64C1243.9 1022.91 1247.75 1021.16 1251.6 1019.39C1247.76 1021.16 1243.9 1022.91 1240.03 1024.64Z" fill="#FFED5A"/>
<path d="M1142.54 1063.46C1155.64 1058.88 1168.64 1054.07 1181.55 1049.06C1168.64 1054.06 1155.64 1058.88 1142.54 1063.46Z" fill="#FFED5A"/>
<path d="M1120.2 1071C1126.76 1068.85 1133.31 1066.69 1139.83 1064.42C1133.31 1066.68 1126.76 1068.85 1120.2 1071Z" fill="#FFED5A"/>
<path d="M1265.88 1012.7C1269.35 1011.05 1272.83 1009.4 1276.28 1007.72C1272.83 1009.41 1269.35 1011.05 1265.88 1012.7Z" fill="#FFED5A"/>
<path d="M426.32 1153.23C422.02 1154.29 417.7 1155.33 413.38 1156.34C417.71 1155.34 422.02 1154.3 426.32 1153.23Z" fill="#FFED5A"/>
<path d="M439.29 1149.97C438.66 1150.13 438.03 1150.28 437.4 1150.44C438.04 1150.29 438.67 1150.13 439.29 1149.97Z" fill="#FFED5A"/>
<path d="M393.9 1160.55C391.04 1161.12 388.18 1161.68 385.31 1162.2C388.18 1161.67 391.04 1161.12 393.9 1160.55Z" fill="#FFED5A"/>
<path d="M350.99 1166.86C346.19 1167.26 341.37 1167.58 336.51 1167.74C341.37 1167.58 346.19 1167.27 350.99 1166.86Z" fill="#FFED5A"/>
<path d="M300.77 1110.49C299.67 1111.42 298.57 1112.34 297.51 1113.3C298.57 1112.34 299.67 1111.41 300.77 1110.49Z" fill="#FFED5A"/>
<path d="M1300.74 995.51C1297.95 996.94 1295.13 998.33 1292.33 999.74C1295.13 998.33 1297.95 996.95 1300.74 995.51Z" fill="#FFED5A"/>
<path d="M327.47 1091.9C325.87 1092.82 324.33 1093.78 322.77 1094.74C324.33 1093.78 325.88 1092.82 327.47 1091.9Z" fill="#FFED5A"/>
<path d="M318.15 1097.61C316.72 1098.54 315.32 1099.5 313.92 1100.46C315.32 1099.5 316.71 1098.54 318.15 1097.61Z" fill="#FFED5A"/>
<path d="M309.24 1103.78C307.96 1104.72 306.7 1105.68 305.45 1106.65C306.7 1105.68 307.96 1104.73 309.24 1103.78Z" fill="#FFED5A"/>
<path d="M589.35 1182.74C579.16 1176.58 562.65 1174.08 543.07 1173.93C558.26 1177.54 573.7 1180.45 589.35 1182.74Z" fill="#F4A800"/>
<path d="M596.65 1189.27C597.25 1190.08 597.84 1190.89 598.29 1191.78C597.84 1190.89 597.24 1190.08 596.65 1189.27Z" fill="#F4A800"/>
<path d="M593.18 1185.49C594.23 1186.38 595.19 1187.33 596.02 1188.35C595.2 1187.32 594.23 1186.38 593.18 1185.49Z" fill="#F4A800"/>
<path d="M475.46 1179.6L475.37 1179.63C498.67 1176.19 522.52 1173.77 543.05 1173.93C522.54 1173.78 498.75 1176.16 475.46 1179.6Z" fill="#F4A800"/>
<path d="M589.36 1182.74C590.7 1183.55 591.93 1184.42 593.05 1185.36C591.94 1184.42 590.7 1183.56 589.36 1182.74Z" fill="#F4A800"/>
<path d="M387.57 1196.76C386.71 1196.96 385.88 1197.16 385.08 1197.35C385.88 1197.16 386.72 1196.96 387.57 1196.76Z" fill="#F4A800"/>
<path d="M400.23 1193.85C398.87 1194.16 397.55 1194.45 396.26 1194.75C397.54 1194.46 398.87 1194.16 400.23 1193.85Z" fill="#F4A800"/>
<path d="M400.79 1193.73C415.01 1190.54 433.06 1186.76 452.46 1183.35L452.53 1183.33C433.08 1186.74 415.04 1190.53 400.79 1193.73Z" fill="#F4A800"/>
<path d="M752.36 106.32C744.98 106.32 737.64 106.46 730.33 106.72L729.86 106.74H729.85C722.66 107 715.51 107.38 708.39 107.87C724.91 109.09 741.24 110.98 757.33 113.65C780.67 117.46 803.54 122.86 825.76 129.66C829.13 130.68 832.46 131.79 835.8 132.88C842.32 126.95 848.8 120.93 855.21 114.79C821.73 109.23 787.38 106.32 752.36 106.32Z" fill="#E38211"/>
<path d="M901.92 159.3L901.99 159.33C918.55 167.27 934.66 175.99 950.24 185.53C969.42 197.2 987.77 210.1 1005.25 224C1013.34 230.46 1021.21 237.17 1028.91 244.06C1045.63 228.97 1062.02 213.55 1078.1 197.84C1033.52 170.54 985.28 148.72 934.27 133.27C923.67 142.13 912.83 150.75 901.92 159.3Z" fill="#E79510"/>
<path d="M1093.13 277.93C1087.08 282.21 1081.08 286.55 1075.08 290.88C1078.76 295.08 1082.5 299.22 1086.05 303.53C1094.73 314.09 1103.06 324.93 1110.86 336.13H1110.92C1113.05 339.16 1115.11 342.25 1117.19 345.33C1142.62 326.56 1167.01 306.54 1191.52 286.59C1175.73 270.94 1159.07 256.17 1141.66 242.28C1125.32 254.89 1108.92 266.75 1093.13 277.93Z" fill="#EECC65"/>
<path d="M1237.24 379.89C1246.32 380.16 1255.26 376.91 1263.66 371.83C1254.65 358.89 1245.03 346.36 1235 334.16C1228.09 344.93 1222.81 353.81 1221.59 358.75C1218.27 372.17 1220.57 379.35 1237.24 379.89Z" fill="#EECC65"/>
<path d="M1279.24 463.12C1277.68 464.58 1276.12 466.04 1274.55 467.48C1270.8 470.94 1267.01 474.37 1263.2 477.75C1260.7 479.97 1258.18 482.18 1255.65 484.36C1252.31 487.25 1248.95 490.12 1245.56 492.96C1242.57 495.46 1239.57 497.93 1236.54 500.38C1234.97 501.66 1233.39 502.92 1231.81 504.18C1220.39 513.32 1208.73 522.2 1196.77 530.83L1196.74 530.85L1196.75 530.86C1199.39 542.76 1201.62 554.84 1203.43 567.04C1203.76 569.25 1203.96 571.51 1204.26 573.73C1222.54 561.91 1240.06 549.17 1256.82 535.68L1257.95 534.8C1263.64 530.2 1269.24 525.5 1274.75 520.73C1291.28 506.44 1307.61 491.94 1323.6 477.3C1317.7 464.02 1311.34 450.94 1304.49 438.21C1301.1 441.8 1297.58 445.32 1294.06 448.85C1289.19 453.7 1284.24 458.43 1279.24 463.12Z" fill="#EECC65"/>
<path d="M1209.03 629C1209.23 635.12 1209.37 641.26 1209.37 647.45C1209.37 654.96 1209.19 662.4 1208.9 669.79C1208.59 677.48 1208.01 685.1 1207.38 692.7L1207.45 692.67C1211.17 690.74 1214.9 688.84 1218.6 686.86C1269.68 659.69 1316.7 629.75 1362.91 596.82C1358.57 576.97 1353.29 557.59 1347.06 538.55C1302.55 570.33 1256.55 600.27 1210.75 627.98C1210.18 628.33 1209.6 628.66 1209.03 629Z" fill="#E38211"/>
<path d="M145.64 787.4C141.82 773.09 138.47 758.6 135.8 743.85C132.99 744.54 130.18 745.27 127.36 745.94C127.63 761.05 128.51 775.95 130 790.72C135.27 789.64 140.43 788.51 145.64 787.4Z" fill="#E38211"/>
<path d="M1202.07 735.84C1198.39 758.38 1193.39 780.5 1186.91 801.97C1180.58 823.61 1172.83 844.6 1163.86 864.95C1155.53 884.01 1146.09 902.36 1135.71 920.13V920.19C1126.42 936.1 1116.26 951.41 1105.43 966.21C1166.5 941.53 1223.64 908.69 1279.43 876.02C1310.32 857.93 1340.95 839.84 1371.03 821.28C1374.08 800.28 1376.04 778.94 1376.93 757.32C1351.52 774.73 1324.83 790.45 1296.38 803.32C1287.17 807.52 1252.34 826.08 1240.62 814.5C1231.88 805.9 1241.57 797.7 1249.16 790.31C1266.03 773.78 1288.86 760.37 1308.58 746.68C1331.55 730.76 1354.04 714.43 1376.6 698.03C1375.52 677.98 1373.55 658.13 1370.64 638.62C1319.35 674.66 1266.51 706.78 1208.04 733.13C1206.05 734.03 1204.06 734.94 1202.07 735.84Z" fill="#E79510"/>
<path d="M186.21 893.39C183.61 888.32 181.08 883.2 178.65 878.02C171.79 863.54 165.69 848.68 160.15 833.55C152.26 835.54 144.36 837.51 136.44 839.42C140.37 861.85 145.45 883.87 151.68 905.41C163.32 901.58 174.8 897.53 186.21 893.39Z" fill="#E79510"/>
<path d="M237.1 974.3C228.76 963.31 220.79 952.02 213.31 940.42C211.38 937.45 209.57 934.42 207.71 931.41L207.66 931.33C193.02 935.13 178.28 938.62 163.41 941.66C170.25 960.83 177.98 979.6 186.65 997.89C195.13 994.01 203.59 990.09 212.03 986.13C220.4 982.22 228.75 978.26 237.1 974.3Z" fill="#E38211"/>
<path d="M251.03 1055.98C253.38 1054.67 255.72 1053.33 258.09 1052.04C264.52 1048.52 271 1045.09 277.52 1041.7C281.93 1039.41 286.35 1037.12 290.8 1034.88C286.42 1030.62 282.01 1026.38 277.76 1021.98L277.7 1021.92C270.81 1014.74 264.16 1007.39 257.72 999.87L257.71 999.88L257.69 999.89C248.98 1004.54 240.33 1009.31 231.73 1014.17C230.88 1014.65 230.03 1015.12 229.18 1015.6C220.51 1020.52 211.89 1025.52 203.31 1030.62C210.56 1044.04 218.35 1057.18 226.68 1069.98C234.71 1065.19 242.84 1060.55 251.03 1055.98Z" fill="#E38211"/>
<path d="M1089.61 1015.24C1078.2 1018.7 1066.77 1022.1 1055.31 1025.45C1043.35 1037.7 1030.88 1049.44 1017.79 1060.51C994.41 1080.41 969.25 1098.24 942.67 1113.9C983.76 1107.51 1024.56 1098.65 1064.77 1087.65C1066.05 1087.3 1067.32 1086.96 1068.6 1086.6C1075.48 1084.69 1082.33 1082.71 1089.17 1080.68C1091.03 1080.13 1092.88 1079.57 1094.73 1079C1101.3 1077.01 1107.86 1074.98 1114.39 1072.88C1116.33 1072.26 1118.26 1071.61 1120.19 1070.98C1126.75 1068.83 1133.3 1066.66 1139.82 1064.4C1140.73 1064.09 1141.62 1063.75 1142.53 1063.44C1155.63 1058.87 1168.63 1054.05 1181.54 1049.04C1183.78 1048.17 1186.04 1047.33 1188.28 1046.45C1192.97 1044.6 1197.62 1042.67 1202.28 1040.77C1206.27 1039.14 1210.25 1037.52 1214.22 1035.85C1218.43 1034.08 1222.62 1032.26 1226.8 1030.44C1231.22 1028.52 1235.63 1026.59 1240.02 1024.62C1243.89 1022.89 1247.74 1021.13 1251.59 1019.37C1256.37 1017.17 1261.12 1014.94 1265.87 1012.68C1269.34 1011.03 1272.82 1009.38 1276.27 1007.7C1281.65 1005.08 1286.99 1002.41 1292.32 999.72C1295.12 998.31 1297.94 996.92 1300.73 995.49C1308.84 991.32 1316.91 987.09 1324.9 982.77C1335.27 959.26 1344.21 935.01 1351.53 910.01C1348.41 911.98 1345.36 913.87 1342.25 915.7C1265.96 961.65 1176.26 989.02 1089.61 1015.24Z" fill="#EECC65"/>
<path d="M336.51 1167.75C341.37 1167.59 346.19 1167.27 350.99 1166.87C352.59 1166.73 354.18 1166.55 355.77 1166.39C358.97 1166.07 362.16 1165.73 365.34 1165.32C367.19 1165.08 369.04 1164.81 370.88 1164.55C373.8 1164.13 376.71 1163.68 379.61 1163.2C381.51 1162.88 383.41 1162.55 385.31 1162.21C388.18 1161.69 391.04 1161.14 393.9 1160.56C395.74 1160.19 397.59 1159.83 399.43 1159.45C402.44 1158.81 405.45 1158.14 408.45 1157.46C410.09 1157.09 411.74 1156.74 413.38 1156.35C417.7 1155.34 422.01 1154.3 426.32 1153.24C430.02 1152.33 433.71 1151.39 437.4 1150.46C438.03 1150.3 438.66 1150.14 439.29 1149.99C445.12 1148.51 450.94 1147.01 456.77 1145.53L456.81 1145.52C452.59 1143.72 448.34 1141.95 444.17 1140.05C419.6 1128.91 396.03 1115.95 373.62 1101.29C364.23 1095.24 355.08 1088.86 346.12 1082.21C341.19 1084.53 336.4 1087 331.71 1089.58C330.29 1090.36 328.86 1091.12 327.47 1091.92C325.87 1092.84 324.33 1093.8 322.77 1094.76C321.22 1095.71 319.66 1096.66 318.15 1097.64C316.72 1098.57 315.32 1099.53 313.92 1100.49C312.34 1101.58 310.78 1102.68 309.24 1103.81C307.96 1104.75 306.7 1105.71 305.45 1106.68C303.85 1107.93 302.3 1109.21 300.76 1110.51C299.66 1111.44 298.56 1112.36 297.5 1113.32C295.82 1114.83 294.22 1116.39 292.64 1117.96C291.81 1118.78 290.95 1119.58 290.14 1120.43C287.8 1122.88 285.55 1125.4 283.45 1128.01C280.47 1131.67 278.5 1135.05 277.49 1138.17C285.08 1147.04 292.94 1155.72 301.07 1164.18L301.14 1164.25C313 1167.2 326.69 1168.08 336.51 1167.75Z" fill="#EECC65"/>
<path d="M904.25 1296.67C934.47 1312.05 977.96 1301 1009.2 1294.77C1017.8 1293.01 1026.34 1291.18 1034.94 1289.28L1035.14 1289.21C1078.63 1267.06 1119.28 1240.09 1156.14 1208.73C1154.99 1209.14 1154.04 1209.41 1153.43 1209.61C1120.3 1219.37 890.29 1263.48 904.25 1296.67Z" fill="#E38211"/>
<path d="M965.5 1155.41C907.1 1168.08 847.34 1176.48 789.21 1190.17C771.26 1194.37 714.35 1203.31 706.56 1221.67C689.96 1261.03 853.98 1238.06 870.92 1235.29C946.59 1223.09 1026.06 1203.72 1097.68 1178.85C1135.01 1165.91 1171.46 1152.49 1209.87 1142.33C1214.34 1141.11 1220.91 1139.08 1228.23 1136.91V1136.84C1252.22 1108.79 1273.69 1078.64 1292.39 1046.6C1290.22 1047.55 1288.05 1048.5 1285.95 1049.51C1183.44 1097.35 1077.96 1131.02 965.5 1155.41Z" fill="#E38211"/>
<path d="M458.8 1241.46C496.74 1229.54 535.29 1219.78 573.03 1207.52C584.21 1203.86 591.73 1204.27 599.79 1195.8C599.45 1194.38 598.94 1193.05 598.3 1191.79C597.85 1190.9 597.26 1190.09 596.66 1189.28L596.03 1188.35C595.19 1187.33 594.24 1186.39 593.19 1185.49L593.06 1185.37C591.94 1184.43 590.71 1183.56 589.37 1182.75C573.72 1180.46 558.27 1177.55 543.09 1173.94H543.07C522.54 1173.79 498.69 1176.2 475.39 1179.64L400.3 1204.85C398.99 1205.29 397.58 1204.58 397.14 1203.28C396.7 1201.97 397.4 1200.56 398.71 1200.12L398.76 1200.1L452.47 1183.36C433.07 1186.77 415.03 1190.55 400.8 1193.74L400.24 1193.86C398.88 1194.16 397.56 1194.46 396.27 1194.76C395.81 1194.86 395.38 1194.96 394.93 1195.07C392.95 1195.52 391.08 1195.96 389.3 1196.37C388.72 1196.51 388.14 1196.64 387.58 1196.77C386.72 1196.97 385.89 1197.17 385.09 1197.36C384.28 1197.55 383.51 1197.74 382.76 1197.92C381.89 1198.13 381.06 1198.33 380.27 1198.52C379.34 1198.74 378.48 1198.95 377.67 1199.15L376.83 1199.35C375.83 1199.59 374.9 1199.82 374.11 1200.01C364.97 1202.25 355.75 1204.55 346.54 1206.99C367.2 1224.74 389.02 1241.07 411.92 1255.84C427.7 1250.94 443.42 1246.27 458.8 1241.46Z" fill="#E38211"/>
<path d="M757.78 1271.74C745.25 1255.68 685.02 1263.2 669.23 1264.09C633.12 1266.26 596.74 1272.69 561.71 1280.62C538.54 1285.77 515.91 1292.82 493.42 1300.61C524.04 1314.63 556.02 1326.22 589.15 1335.09H589.22C613.27 1329.13 635.29 1324.32 651.82 1319.98C665.91 1316.25 777.29 1296.74 757.78 1271.74Z" fill="#E79510"/>
<path d="M330.48 401.71C347.35 397.17 383.39 386.6 397.89 403.94C412.39 421.22 374.45 439.04 362.32 446.01C322.8 468.86 281.39 489.09 238.7 507.06C232.12 534.78 228.54 563.66 228.54 593.39C228.54 598.67 228.72 603.91 228.94 609.14C278.53 598.64 327.9 587.61 377.03 573.11C453.45 550.55 530.21 528.19 605.08 501.7C633.8 491.47 661.51 478.66 690.38 468.98C704.54 464.24 723.64 458.68 738.48 463.63C741.39 476.1 715.38 486.87 705.82 491.61C650.27 519.12 591.05 541.07 532.18 562.14C462.06 587.28 394.17 613.97 321.82 633.96C292.78 641.94 263.48 649.7 234.08 657.11C237.52 677.09 242.54 696.51 249.03 715.26C369.15 686.76 481.96 645.1 597.36 604.49C701.15 567.97 799.53 523.19 900.4 481.05C908.7 477.6 927.24 468.2 948.93 458.57C943.14 443.66 936.51 429.18 928.93 415.27C925.11 412.47 923.35 409.26 923.37 405.61C912.38 386.8 899.8 369.04 885.79 352.52C846.94 375.89 806.05 396.64 764.15 415.27C674.99 454.9 577.16 488.85 480.89 512.29C471.67 514.59 367.48 538.24 379.2 504.16C384.62 488.31 432.99 479.23 447.36 475.03C482.59 464.66 517.62 453.15 552.44 441.63C626.83 416.97 704.47 389.6 771.54 351.53C794.65 338.45 820.19 325.27 842.61 309.3C832.95 301.09 822.89 293.34 812.42 286.14C805.49 290.85 800.03 294.59 797.42 296.05C764.02 314.61 728.72 335.08 692.48 349.17C677.64 354.86 649.6 363.53 633.2 357.77C614.37 351.2 627.03 341.98 638.96 333.92C679.04 306.75 722.18 283.43 763.16 257.46C745.4 248.89 726.83 241.77 707.65 236.07C706.94 236.65 706.21 237.2 705.49 237.78C678.12 259.93 521.96 398.01 497.36 335.68C484.83 303.77 535.23 280.46 553.05 269.83C578.59 254.51 603.46 241.16 625.81 221.5C617.72 220.98 609.59 220.62 601.37 220.62C598.71 220.62 596.1 220.77 593.46 220.82C574.82 247.85 530.46 266.35 499.95 280.27C438.23 308.35 375.55 333.86 312.2 358.2C295.91 378.2 281.71 399.94 269.8 423.07C289.5 414.74 309.58 407.3 330.48 401.71Z" fill="#FED848"/>
<path d="M357.72 773.78C448.77 740.65 537.66 700.2 630.89 672.22C662.93 662.6 781.36 617.75 793.76 673.03C804.8 722.49 736.71 781.16 790.91 825.26C812.65 842.9 844.15 846.8 876.82 844.57C894.63 825.05 910.31 803.6 923.69 780.62C913.67 779.7 903.63 777.88 893.63 774.91C853.25 762.99 845.6 722.74 852.64 689.68C857.38 667.32 867.21 646.12 880.01 626.47C891.33 609.13 909.14 593.14 916.73 574.03C928.14 545.49 902.08 540.82 876.16 542.9L810.87 564.82C809.56 565.26 808.15 564.55 807.71 563.25C807.27 561.94 807.97 560.53 809.28 560.09L809.33 560.07L854.34 546.04C850.41 546.83 846.81 547.68 843.75 548.49C773.7 567.06 708.86 604.86 642.47 631.82C552.43 668.54 459.34 704.38 364.97 731.34C332.53 740.62 299.82 749.66 266.99 758.28C273.61 771.68 281.03 784.6 289.15 797.03C312.12 789.76 334.98 782.06 357.72 773.78Z" fill="#FED848"/>
<path d="M597.89 921.34C581.15 911.92 578.04 894.85 560.97 885.5C516.13 861.11 437.53 885.68 393.85 903.13C410.33 914.19 427.77 923.9 445.97 932.26C459.33 930.31 472.86 929.11 486.65 928.99C496.07 928.92 522.76 927.63 530.42 934.34C539.52 942.37 525.05 949.26 507.94 954.39C537.79 962.09 569.09 966.2 601.36 966.2C650.55 966.2 697.48 956.58 740.47 939.27C690.91 942.86 638.65 944.15 597.89 921.34Z" fill="#FED848"/>
<path d="M791.11 886.52C751.34 892.48 679.46 905.83 651.68 869.65C631.08 842.96 664.28 816.26 660.28 788.35C657.91 771.07 646.46 754.2 627.83 747.97C604.19 739.98 574.65 746.21 551.61 753.8C490.7 773.92 428.51 793.23 369.77 818.09C353.4 825.04 337.17 832.02 320.96 838.96C333.39 853.14 346.85 866.38 361.27 878.53C378.3 872.58 395.5 866.93 413.13 861.92C452.49 850.74 495.51 836.18 537.11 834.62C567.19 833.6 582.84 838.48 598.35 860.16C603.63 867.61 607.63 875.95 612.78 883.33C632.97 912.33 693.74 911.44 727.82 911.72C752.67 912 777.53 910.43 802.15 907.42C816.6 898.16 830.36 887.95 843.35 876.85L843.38 876.82C826.07 880.52 808.67 883.89 791.11 886.52Z" fill="#FED848"/>
<path d="M443.69 276.1C454.53 271.7 505.55 254.96 507.58 242.29C508.56 236.4 500.11 236.01 489.37 237.72C442.93 252.33 400.41 275.77 363.78 306.09L363.68 306.17C390.42 296.29 417.33 286.77 443.69 276.1Z" fill="#FED848"/>
<path d="M938.19 662.13C930.54 687.99 938.29 704.95 953.97 714.4C966.71 677.27 973.79 637.53 974.09 596.15C958.77 616.56 945.36 637.89 938.19 662.13Z" fill="#FED848"/>
<path d="M553.04 269.8C535.22 280.44 484.82 303.74 497.35 335.65C521.94 397.98 678.1 259.91 705.48 237.75C706.19 237.17 706.92 236.62 707.64 236.04C681.5 228.28 654.16 223.32 625.96 221.48L625.8 221.47C603.45 241.13 578.58 254.47 553.04 269.8Z" fill="#F7B946"/>
<path d="M842.6 309.27C820.18 325.24 794.64 338.42 771.53 351.5C704.46 389.57 626.82 416.94 552.43 441.6C517.61 453.12 482.58 464.64 447.35 475C432.99 479.2 384.61 488.28 379.19 504.13C367.47 538.21 471.67 514.56 480.88 512.26C577.15 488.82 674.98 454.88 764.14 415.24C806.04 396.61 846.93 375.86 885.78 352.49C872.59 336.94 858.15 322.49 842.6 309.27Z" fill="#FAC847"/>
<path d="M763.14 257.43C722.16 283.4 679.02 306.72 638.94 333.89C627.02 341.95 614.35 351.17 633.18 357.74C649.58 363.5 677.62 354.83 692.46 349.14C728.71 335.05 764 314.59 797.4 296.02C800.01 294.57 805.46 290.82 812.4 286.11C796.79 275.37 780.35 265.73 763.14 257.43Z" fill="#FAC847"/>
<path d="M923.36 405.6C923.33 409.25 925.09 412.47 928.92 415.26C927.14 411.99 925.24 408.81 923.36 405.6Z" fill="#FFF184"/>
<path d="M489.54 237.67L489.36 237.72C500.1 236.01 508.56 236.39 507.57 242.29C505.54 254.96 454.52 271.69 443.68 276.1C417.32 286.77 390.41 296.29 363.67 306.18C344.84 321.78 327.6 339.21 312.16 358.17C375.51 333.83 438.19 308.31 499.91 280.24C530.43 266.32 574.78 247.82 593.42 220.79C557.31 221.54 522.44 227.34 489.54 237.67Z" fill="#FFF184"/>
<path d="M362.32 446.01C374.45 439.03 412.39 421.21 397.89 403.94C383.39 386.6 347.35 397.17 330.48 401.71C309.58 407.3 289.5 414.75 269.77 423.04C256.21 449.39 245.7 477.54 238.69 507.07C281.39 489.1 322.8 468.86 362.32 446.01Z" fill="#F7B946"/>
<path d="M532.17 562.13C591.04 541.06 650.26 519.11 705.81 491.6C715.36 486.86 741.38 476.08 738.47 463.62C723.63 458.67 704.53 464.23 690.37 468.97C661.51 478.66 633.8 491.46 605.07 501.69C530.21 528.18 453.45 550.54 377.02 573.1C327.89 587.6 278.53 598.64 228.93 609.13C229.61 625.41 231.37 641.41 234.07 657.09C263.46 649.67 292.76 641.92 321.81 633.94C394.16 613.96 462.05 587.27 532.17 562.13Z" fill="#FFF184"/>
<path d="M364.97 731.37C459.35 704.41 552.43 668.57 642.47 631.85C708.86 604.89 773.7 567.08 843.75 548.52C846.81 547.71 850.41 546.86 854.34 546.07L965 511.57C960.9 493.37 955.55 475.65 948.91 458.56C927.22 468.19 908.68 477.58 900.38 481.04C799.5 523.18 701.13 567.96 597.34 604.48C481.95 645.1 369.14 686.75 249.01 715.25L249.02 715.29C254.13 730.07 260.12 744.44 266.97 758.31C299.82 749.69 332.52 740.65 364.97 731.37Z" fill="#F7B946"/>
<path d="M965.31 512.99L876.15 542.92C902.07 540.84 928.12 545.51 916.72 574.05C909.13 593.16 891.31 609.14 880 626.49C867.2 646.14 857.37 667.34 852.63 689.7C845.58 722.76 853.24 763 893.62 774.93C903.63 777.89 913.66 779.71 923.68 780.64C935.84 759.76 946.01 737.6 953.97 714.4C938.3 704.95 930.55 688 938.19 662.13C945.36 637.89 958.77 616.56 974.09 596.14C974.1 595.22 974.16 594.31 974.16 593.38C974.16 565.77 971.04 538.89 965.31 512.99Z" fill="#F7B946"/>
<path d="M790.9 825.27C736.7 781.16 804.79 722.49 793.75 673.04C781.35 617.76 662.92 662.61 630.88 672.23C537.65 700.21 448.77 740.66 357.71 773.79C334.98 782.07 312.11 789.77 289.14 797.07C298.77 811.8 309.41 825.79 320.96 838.97C337.16 832.03 353.4 825.05 369.77 818.1C428.51 793.24 490.7 773.93 551.61 753.81C574.65 746.22 604.18 739.99 627.83 747.98C646.46 754.21 657.91 771.08 660.28 788.36C664.28 816.27 631.08 842.97 651.68 869.66C679.46 905.84 751.34 892.49 791.11 886.53C808.67 883.9 826.07 880.53 843.4 876.83C855.15 866.78 866.32 856.08 876.74 844.67L876.81 844.59C844.14 846.81 812.64 842.92 790.9 825.27Z" fill="#FAC847"/>
<path d="M393.83 903.13C437.52 885.69 516.12 861.11 560.96 885.5C578.03 894.85 581.15 911.92 597.88 921.34C638.64 944.15 690.9 942.86 740.45 939.27C762.04 930.58 782.62 919.92 801.99 907.52L802.15 907.42C777.53 910.43 752.66 912 727.82 911.72C693.74 911.45 632.97 912.33 612.78 883.33C607.63 875.95 603.63 867.61 598.35 860.16C582.84 838.48 567.19 833.6 537.11 834.62C495.51 836.18 452.49 850.74 413.13 861.92C395.5 866.94 378.3 872.58 361.27 878.53C371.67 887.3 382.52 895.53 393.83 903.13Z" fill="#F7B946"/>
<path d="M530.41 934.35C522.75 927.64 496.06 928.93 486.64 929C472.85 929.12 459.32 930.32 445.96 932.27C465.76 941.36 486.45 948.86 507.93 954.4C525.04 949.27 539.51 942.38 530.41 934.35Z" fill="#F7B946"/>
<path d="M1586.14 137.44C1585.11 135.81 1584.06 134.2 1583.02 132.58L1582.28 134.32L1586.14 137.44Z" fill="#40255A"/>
<path d="M1574.19 129.85L1580.38 134.86L1577.08 142.56L1581.57 135.65L1586.77 138.42L1588.47 139.33L1586.14 137.44L1582.28 134.32L1583.02 132.58L1585.57 126.61L1582.37 131.56L1581.09 133.53L1574.19 129.85Z" fill="white"/>
<path d="M1646.63 319.89L1650.84 323.56L1647.3 319.1L1650.58 314.4L1646.59 318.36L1642.38 314.69L1645.93 319.15L1642.64 323.85L1646.63 319.89Z" fill="white"/>
<path d="M1347.75 465.51C1344.55 451.95 1337.23 437.22 1331.03 422.08C1321.3 398.36 1314.32 373.65 1330.32 350.9C1326.81 339.75 1317.43 336.85 1307.72 332.05C1329.34 344.57 1295.9 365.68 1279.16 352.58C1268.69 344.38 1266.79 329.29 1263.9 316.18C1263.15 312.78 1262.34 309.51 1261.28 306.54C1259.24 300.77 1255.02 294.8 1251.27 288.84C1244.04 277.37 1238.53 265.91 1253.69 255.86C1255.15 254.89 1256.71 254.17 1258.3 253.55C1274.2 247.4 1295.57 258.16 1301.1 273.7C1302.15 254.47 1289.67 239.46 1271.34 234.97C1264.73 233.35 1258.94 233.25 1253.6 234.17C1241.31 236.29 1231.42 243.9 1219.5 251.49C1193.83 267.84 1173.69 243.02 1158.54 226.19L1158.05 225.73C1152.13 219.36 1144.52 214.96 1137.79 209.56C1137.19 209.08 1136.58 208.62 1136 208.13L1135.06 207.38C1129.28 202.21 1121.63 193.3 1122.33 185C1122.72 180.33 1125.44 175.43 1123.64 171.63C1122.91 181.4 1109.64 179.74 1103.41 177.43C1093.97 173.94 1088.03 167.8 1081.59 160.45C1076.35 154.48 1070.6 148.7 1062.58 146.61C1057.01 145.16 1051.36 145 1045.69 144.35C1042.41 143.97 1039.13 143.44 1035.86 142.38C1030.38 140.61 1024.61 137.64 1019.79 133.76C1011.11 126.77 1005.56 116.79 1010.63 105.28C1013.7 98.3203 1022.79 90.5403 1031.45 93.5003C1035.94 95.0403 1039.76 101.9 1038.92 106.57C1038.02 111.62 1029.4 115.26 1038.2 117.37C1048.85 119.92 1057.63 103.49 1056.42 94.8703C1053.55 74.3603 1027.26 73.4203 1012.5 79.9603C994.513 87.9403 992.693 113.57 976.883 118.78C956.103 125.63 941.942 93.2403 966.052 96.9703C959.752 93.5803 952.493 93.3003 944.873 94.0203C929.503 95.4803 912.643 101.03 899.103 93.5903C895.773 91.7603 892.642 89.1703 889.782 85.5103C881.272 74.6103 890.983 63.0003 884.463 51.3303C878.483 40.6303 863.283 35.6503 852.573 41.7203C865.783 41.8803 864.773 57.5703 859.833 65.8803C852.823 77.6703 834.523 81.7303 821.773 81.4203C820.023 81.3803 818.332 81.0903 816.662 80.7203C807.722 78.6903 799.733 72.5803 790.953 69.9503C780.163 66.7303 768.953 65.1003 757.823 66.5603C755.803 66.8303 753.773 67.1603 751.763 67.6403C736.143 71.3803 726.053 80.5703 711.803 87.5603C702.143 92.3003 644.603 88.5903 663.283 69.8103C648.653 68.8003 641.883 90.6903 631.233 97.4903C616.833 106.67 597.083 108.83 580.393 107.49C573.633 106.95 566.513 104.14 563.133 99.1703C561.073 96.1503 560.393 92.3203 562.033 87.7203C564.163 81.7403 584.223 69.1903 585.053 81.9103C583.573 59.3103 565.933 66.5803 552.953 71.2103C532.603 78.4803 526.833 35.5003 552.443 34.3803C558.623 34.1103 565.423 35.3803 570.643 38.8403C572.353 39.9703 582.363 49.9803 578.783 52.5503C593.073 42.2903 573.863 24.0003 563.363 20.5103C562.663 20.2803 561.963 20.1203 561.263 19.9403C544.643 15.7303 526.672 26.3002 516.432 38.8503C513.452 42.5003 511.023 47.5903 509.273 53.4203C503.503 72.7103 505.313 100.18 520.173 111.21C524.263 114.25 529.313 116.07 535.493 116.1C514.113 124.83 486.733 127.67 470.803 108.75C469.713 107.45 468.673 106.06 467.693 104.56C467.563 105.41 467.563 106.25 467.493 107.1C466.583 119.39 472.263 131.07 482.103 138.55C447.263 146.76 404.753 182.19 367.493 155.99C356.343 159.5 353.443 168.88 348.643 178.59C361.163 156.97 382.272 190.41 369.182 207.15C358.852 220.34 337.583 219.92 323.143 225.03C306.273 231 287.733 255.66 272.463 232.63C267.763 225.54 267.373 216.65 269.863 208.41C273.013 198 280.763 188.62 290.303 185.23C271.073 184.18 256.063 196.66 251.573 214.99C250.503 219.36 250.113 223.37 250.223 227.13C250.643 242.16 259.383 253.17 268.093 266.84C270.083 269.97 271.443 273.01 272.303 275.98C278.493 297.34 257.573 314.5 242.793 327.81C235.273 334.58 230.653 343.84 223.983 351.29C218.813 357.07 209.903 364.72 201.603 364.02C196.933 363.63 192.033 360.91 188.233 362.71C195.753 363.27 196.493 371.26 195.383 377.76C195.053 379.7 194.563 381.51 194.033 382.94C190.543 392.37 184.403 398.32 177.053 404.76C171.083 410 165.303 415.75 163.213 423.77C161.223 431.43 161.673 439.25 159.923 447.03C159.663 448.18 159.363 449.33 158.993 450.48C154.053 465.82 139.793 483.6 121.893 475.71C116.843 473.48 111.413 468.07 109.913 461.97C109.343 459.66 109.303 457.26 110.113 454.89C111.653 450.4 118.513 446.58 123.183 447.42C128.233 448.32 131.873 456.94 133.983 448.14C136.533 437.49 120.103 428.7 111.483 429.91C94.0825 432.35 90.7925 451.62 94.1825 466.43C94.7825 469.07 95.5825 471.59 96.5725 473.83C104.553 491.82 130.183 493.64 135.393 509.46C142.243 530.23 109.863 544.4 113.593 520.29C110.673 525.71 109.833 531.43 109.973 537.3C110.113 543.52 111.353 549.9 112.433 556.26C114.443 568.12 115.843 579.89 108.283 590.32C99.8725 601.93 86.7525 599.35 74.8425 604.25C62.9725 609.14 52.0225 616.71 48.7125 629.77C46.6925 637.72 49.5525 655.49 61.1225 652.78C53.3625 649.41 50.7525 636.8 55.5325 630.29C63.8125 619.01 80.5225 624.66 87.5825 633.25C88.9025 634.85 90.0425 636.62 91.0825 638.47C92.6025 641.16 93.8325 644.05 94.7625 647.08C97.5625 656.22 97.6825 666.46 94.9425 675.12C90.7325 688.47 83.0025 694.06 84.6225 708.49C85.4225 715.62 86.3625 722.47 87.6025 729.27C88.8625 736.24 90.4425 743.15 92.5225 750.25C96.6225 764.27 104.923 777.37 105.833 792.23C105.863 792.69 105.943 793.13 105.963 793.58C106.143 799.62 105.723 807.82 102.973 813.32C101.323 816.61 87.8825 824.98 86.7725 818C87.7125 830.1 108.493 839.19 114.523 848.64C118.313 854.57 120.843 861.44 122.493 868.6C124.833 878.82 125.313 889.67 124.523 899.47C123.483 912.51 112.003 926.33 99.4925 913.51C94.6425 908.53 94.8925 901.2 97.8925 895.6C80.8425 896.09 88.0425 910.92 89.6325 921.24C90.8325 929.03 87.2225 938.24 80.3925 942.75C67.8825 951.01 51.9925 940.58 51.4125 927.41C51.1425 921.23 52.4125 914.43 55.8825 909.21C57.0125 907.5 67.0225 897.49 69.6025 901.07C66.9525 897.39 63.7825 895.96 60.4625 896C56.5825 896.05 52.5225 898.13 48.8725 901.13C43.5325 905.53 39.1025 911.86 37.5525 916.49C31.8325 933.67 42.8125 952.75 55.8825 963.42C61.8725 968.31 71.7125 971.73 82.4025 973.04C87.8325 973.7 93.4725 973.81 98.9325 973.3C108.523 972.39 117.573 969.52 123.953 964.23C129.553 959.58 133.103 953.07 133.143 944.36C135.083 949.1 136.693 954.14 137.883 959.29C142.403 978.92 140.213 1000.07 121.603 1012.16C134.803 1014.13 147.603 1008.27 155.593 997.74C156.703 1002.44 158.313 1007.29 160.193 1012.24C167.503 1031.46 178.973 1052.31 181.853 1072.93C183.723 1086.34 181.953 1099.64 173.033 1112.34C174.323 1116.45 176.423 1119.43 179.033 1121.81C183.513 1125.88 189.503 1128.17 195.623 1131.2C174.003 1118.68 207.442 1097.57 224.182 1110.66C230.102 1115.29 233.272 1122.13 235.432 1129.56C238.102 1138.7 239.243 1148.73 242.062 1156.7C248.032 1173.57 272.693 1192.11 249.653 1207.38C233.603 1218.02 208.323 1206.64 202.243 1189.54C201.203 1208.77 213.673 1223.78 232.003 1228.27C253.833 1233.62 266.753 1222.64 283.843 1211.75C309.513 1195.4 329.653 1220.22 344.803 1237.05C345.353 1237.66 346.013 1238.16 346.593 1238.74C353.153 1245.24 361.443 1249.74 368.283 1255.86C374.063 1261.03 381.713 1269.94 381.013 1278.24C380.623 1282.91 377.903 1287.81 379.703 1291.61C380.433 1281.84 393.702 1283.5 399.932 1285.81C404.872 1287.64 408.853 1290.21 412.453 1293.29C415.723 1296.08 418.693 1299.29 421.753 1302.79C426.993 1308.76 432.743 1314.55 440.763 1316.63C449.563 1318.92 458.553 1317.98 467.473 1320.85C482.813 1325.79 500.593 1340.05 492.703 1357.95C489.633 1364.91 480.543 1372.69 471.883 1369.73C467.393 1368.19 463.573 1361.33 464.413 1356.66C465.313 1351.61 473.933 1347.97 465.133 1345.86C454.483 1343.31 445.703 1359.75 446.913 1368.37C448.103 1376.83 453.293 1381.92 460.003 1384.57C469.543 1388.34 482.163 1387.12 490.833 1383.27L491.463 1382.94C508.843 1374.64 510.833 1349.61 526.463 1344.45C547.243 1337.6 561.403 1369.99 537.293 1366.26C559.423 1378.16 593.333 1351.79 613.562 1377.71C614.522 1378.94 615.223 1380.18 615.773 1381.43C620.053 1391.24 613.103 1401.53 618.883 1411.88C619.153 1412.36 619.523 1412.75 619.823 1413.21C626.293 1422.94 640.543 1427.3 650.773 1421.49C641.353 1421.38 639.183 1413.38 640.493 1405.78C641.023 1402.72 642.093 1399.72 643.513 1397.33C649.403 1387.43 658.332 1383.27 668.372 1382.11C673.592 1381.51 679.103 1381.73 684.633 1382.38C688.443 1382.82 692.243 1383.46 695.973 1384.19C704.163 1385.78 711.993 1387.74 718.483 1388.76C729.333 1390.48 741.183 1388.55 752.083 1387.41C761.443 1386.44 770.753 1384.93 780.073 1383.52C782.623 1383.13 785.173 1382.75 787.713 1382.39C796.533 1381.15 803.542 1376.21 812.402 1374.82C820.002 1373.63 840.043 1375.41 843.593 1382.99C844.863 1385.71 844.043 1389.17 839.743 1393.51C846.123 1394.02 851.653 1388.83 856.812 1382.67C862.133 1376.31 867.063 1368.92 872.083 1365.72C886.483 1356.54 906.232 1354.38 922.922 1355.72C935.112 1356.7 947.952 1366.77 939.152 1378.29C938.532 1379.11 937.813 1379.93 936.973 1380.75C931.993 1385.6 924.662 1385.35 919.052 1382.35C919.552 1399.41 934.373 1392.2 944.693 1390.61C952.473 1389.41 961.693 1393.01 966.203 1399.85C974.463 1412.36 964.033 1428.25 950.863 1428.82C944.683 1429.09 937.882 1427.82 932.662 1424.36C930.952 1423.23 920.942 1413.22 924.532 1410.65C910.242 1420.91 929.453 1439.2 939.953 1442.69C957.133 1448.4 976.213 1437.43 986.883 1424.35C995.593 1413.68 999.673 1390.76 995.353 1372.64C991.963 1358.43 983.393 1347.18 967.823 1347.1C990.663 1337.77 1020.36 1335.16 1035.62 1358.64C1037.59 1345.44 1031.73 1332.64 1021.2 1324.65C1056.04 1316.44 1098.55 1281.01 1135.81 1307.21C1146.96 1303.7 1149.86 1294.32 1154.66 1284.61C1142.14 1306.23 1121.03 1272.79 1134.12 1256.05C1144.45 1242.86 1165.72 1243.28 1180.16 1238.17C1185.75 1236.19 1191.52 1232.18 1197.29 1228.51C1205.15 1223.52 1213.01 1219.29 1220.43 1221.72C1224.02 1222.9 1227.5 1225.55 1230.83 1230.57C1234.92 1236.73 1235.73 1244.25 1234.25 1251.53L1234.21 1251.68C1231.79 1263.29 1223.48 1274.25 1212.99 1277.98C1232.22 1279.03 1247.23 1266.55 1251.72 1248.22C1255.12 1234.32 1251.9 1224.04 1246.31 1213.99C1243.12 1208.25 1239.16 1202.59 1235.2 1196.38C1221.36 1174.66 1237.01 1156.91 1252.35 1142.77C1255.14 1140.2 1257.91 1137.74 1260.5 1135.41C1268.02 1128.64 1272.64 1119.38 1279.31 1111.93C1284.48 1106.15 1293.39 1098.5 1301.69 1099.2C1306.36 1099.59 1311.26 1102.31 1315.06 1100.51C1305.29 1099.78 1306.95 1086.51 1309.26 1080.28C1312.75 1070.85 1318.89 1064.9 1326.24 1058.46C1332.21 1053.22 1337.99 1047.47 1340.08 1039.45C1340.53 1037.71 1340.83 1035.97 1341.09 1034.22C1342.13 1027.1 1342 1019.9 1344.31 1012.73C1349.25 997.39 1363.51 979.61 1381.4 987.5C1385.43 989.28 1389.68 993.11 1392.02 997.68C1393.71 1000.99 1394.43 1004.69 1393.18 1008.33C1391.64 1012.82 1384.78 1016.64 1380.11 1015.8C1377.26 1015.29 1374.86 1012.33 1372.93 1011.42C1371.64 1010.81 1370.56 1011.14 1369.69 1013.74C1369.56 1014.14 1369.43 1014.57 1369.31 1015.08C1366.76 1025.73 1383.2 1034.51 1391.82 1033.31C1412.33 1030.43 1413.27 1004.15 1406.73 989.39C1406.45 988.76 1406.1 988.2 1405.78 987.6C1396.94 971.29 1372.94 969.02 1367.91 953.76C1361.06 932.99 1393.44 918.82 1389.71 942.94C1401.62 920.81 1375.24 886.9 1401.17 866.67C1412.07 858.16 1423.68 867.87 1435.35 861.35C1446.04 855.37 1451.03 840.17 1444.96 829.46C1444.8 842.67 1429.11 841.66 1420.8 836.72C1409.01 829.71 1404.95 811.41 1405.25 798.66C1405.45 790.03 1410.88 784.29 1413.28 776.54C1415.08 770.73 1414.53 765.43 1413.11 759.97C1412.63 758.14 1412.06 756.28 1411.44 754.39C1408.26 744.67 1408.16 739.32 1409.19 729.28C1410.2 719.44 1410.29 709.26 1408.59 699.49C1408.43 698.57 1408.19 697.71 1407.95 696.84C1405.58 688.12 1399.72 681.62 1397.54 673.29C1395.9 667.01 1397.93 653.89 1401.41 648.4C1403.16 645.64 1415.52 638.89 1416.55 645.38C1415.77 633.21 1394.85 624.09 1388.8 614.6C1388.18 613.63 1387.67 612.57 1387.11 611.55C1379.42 597.49 1377.55 579.32 1378.8 563.76C1379.84 550.72 1391.32 536.9 1403.83 549.72C1408.69 554.69 1408.43 562.03 1405.43 567.63C1422.49 567.14 1415.28 552.31 1413.69 541.99C1412.49 534.2 1416.09 524.99 1422.93 520.48C1435.44 512.22 1451.33 522.65 1451.91 535.82C1452.18 542 1450.91 548.8 1447.44 554.02C1446.31 555.73 1436.3 565.74 1433.73 562.16C1443.99 576.45 1462.28 557.24 1465.77 546.74C1471.49 529.56 1460.51 510.48 1447.44 499.81C1442.58 495.84 1435.18 492.85 1426.85 491.15L1425.72 490.94C1401.55 486.42 1370.31 492.88 1370.18 518.87C1361.8 498.34 1358.91 472.31 1375.44 456.16L1369.91 458.02C1368.6 458.46 1367.19 457.75 1366.75 456.45C1366.31 455.14 1367.01 453.73 1368.32 453.29L1368.37 453.27L1376.62 450.7C1375.77 450.7 1374.94 450.8 1374.1 450.87C1363.74 451.67 1354.18 457.04 1347.75 465.51ZM1346.37 538.7C1352.6 557.74 1357.89 577.11 1362.22 596.97C1365.27 610.72 1367.84 624.68 1369.94 638.77C1372.85 658.28 1374.82 678.13 1375.9 698.18C1376.51 709.29 1376.78 720.4 1376.78 731.65C1376.78 740.32 1376.58 748.93 1376.24 757.46C1375.36 779.07 1373.39 800.41 1370.34 821.42C1366 851.77 1359.5 881.45 1350.83 910.17C1343.51 935.17 1334.57 959.42 1324.2 982.93C1314.58 1004.95 1303.67 1026.15 1291.68 1046.68V1046.75C1272.98 1078.79 1251.5 1108.94 1227.52 1136.99V1137.06C1205.44 1162.94 1181.38 1186.92 1155.44 1208.87C1118.59 1240.24 1077.93 1267.2 1034.44 1289.35L1034.24 1289.42C949.353 1332.51 853.352 1356.76 751.662 1356.76C695.222 1356.76 640.483 1349.31 588.523 1335.22H588.453C555.323 1326.34 523.343 1314.76 492.723 1300.74C464.333 1287.87 437.103 1272.89 411.223 1255.96C388.323 1241.19 366.513 1224.86 345.843 1207.11C329.993 1193.63 314.883 1179.33 300.453 1164.36L300.383 1164.29C292.253 1155.82 284.393 1147.15 276.803 1138.28C258.373 1116.8 241.373 1093.97 225.993 1070.12C217.663 1057.31 209.873 1044.17 202.623 1030.76C196.733 1020.06 191.173 1009.15 185.953 998.04C177.283 979.75 169.563 960.98 162.713 941.81C158.443 929.89 154.513 917.83 150.993 905.56C144.763 884.02 139.683 862 135.753 839.57C132.973 823.58 130.803 807.32 129.313 790.86C127.823 776.09 126.943 761.19 126.673 746.08C126.543 741.27 126.473 736.46 126.473 731.65C126.473 724.23 126.633 716.86 126.913 709.52C127.243 700.02 127.743 690.57 128.503 681.18C129.863 663.63 132.023 646.29 134.873 629.15V629.08C139.953 597.92 147.403 567.56 157.023 538.16C184.423 528.68 211.453 518.37 238.003 507.21C245.003 477.68 255.513 449.53 269.083 423.18C241.743 434.68 215.113 447.86 188.193 460.45C200.053 435.86 213.463 412.21 228.303 389.59C238.193 374.41 248.762 359.71 259.872 345.55C272.342 329.77 285.483 314.59 299.303 300.09C308.183 290.81 317.392 281.73 326.812 273.06L326.883 272.99C419.633 187.08 538.403 128.89 670.173 111.75C671.933 113.31 673.563 115.14 675.053 117.31C695.583 146.71 658.993 186.35 640.363 206.81C635.493 212.17 630.453 217.08 625.273 221.64C653.473 223.48 680.803 228.44 706.953 236.2C741.453 208.34 777.243 182.44 811.363 153.83C819.413 147.11 827.303 140.14 835.113 133.03C841.633 127.1 848.103 121.08 854.523 114.94C848.113 121.08 841.643 127.1 835.113 133.03C831.773 131.95 828.443 130.83 825.073 129.81C802.843 123.01 779.973 117.61 756.643 113.8C740.563 111.13 724.223 109.24 707.703 108.02C714.823 107.53 721.982 107.15 729.162 106.89H729.172L729.643 106.87C736.953 106.61 744.292 106.47 751.672 106.47C786.702 106.47 821.053 109.38 854.513 114.94C881.473 119.34 907.903 125.58 933.573 133.44C984.593 148.89 1032.82 170.7 1077.4 198.01C1099.55 211.49 1120.76 226.4 1140.95 242.45C1158.36 256.34 1175.03 271.11 1190.81 286.76C1206.12 301.8 1220.62 317.72 1234.3 334.32C1244.33 346.51 1253.95 359.05 1262.96 371.99H1263.03C1277.94 393.2 1291.62 415.35 1303.82 438.38C1310.66 451.12 1317.03 464.19 1322.93 477.47C1331.8 497.3 1339.66 517.76 1346.37 538.7Z" fill="#F4A800"/>
</svg>
