<?xml version="1.0"?>
<svg version="1.1" id="圖層_1" xmlns="http://www.w3.org/2000/svg" x="0" y="0" viewBox="0 0 100 100" xml:space="preserve"><path d="M61.239 92.5H38.761a3.229 3.229 0 0 1-3.229-3.229V10.729A3.229 3.229 0 0 1 38.761 7.5h22.477a3.229 3.229 0 0 1 3.229 3.229V89.27a3.228 3.228 0 0 1-3.228 3.23z" fill="#a0c8d7" stroke="#333" stroke-width="2.3" stroke-linecap="round" stroke-linejoin="round" stroke-miterlimit="10"/><path fill="none" stroke="#333" stroke-width="2.3" stroke-linecap="round" stroke-linejoin="round" stroke-miterlimit="10" d="M35.532 16.944h6.459"/><path fill="none" stroke="#333" stroke-width="2.3" stroke-linecap="round" stroke-linejoin="round" stroke-miterlimit="10" d="M35.532 26.389h6.459"/><path fill="none" stroke="#333" stroke-width="2.3" stroke-linecap="round" stroke-linejoin="round" stroke-miterlimit="10" d="M35.532 35.833h11.626"/><path fill="none" stroke="#333" stroke-width="2.3" stroke-linecap="round" stroke-linejoin="round" stroke-miterlimit="10" d="M35.532 45.278h6.459"/><path fill="none" stroke="#333" stroke-width="2.3" stroke-linecap="round" stroke-linejoin="round" stroke-miterlimit="10" d="M35.532 54.722h6.459"/><path fill="none" stroke="#333" stroke-width="2.3" stroke-linecap="round" stroke-linejoin="round" stroke-miterlimit="10" d="M35.532 64.167h11.626"/><path fill="none" stroke="#333" stroke-width="2.3" stroke-linecap="round" stroke-linejoin="round" stroke-miterlimit="10" d="M35.532 73.611h6.459"/><path fill="none" stroke="#333" stroke-width="2.3" stroke-linecap="round" stroke-linejoin="round" stroke-miterlimit="10" d="M35.532 83.056h6.459"/><path d="M61.239 7.5h-6.234l-7.342 85h13.576a3.229 3.229 0 0 0 3.229-3.229V10.729A3.23 3.23 0 0 0 61.239 7.5z" opacity=".2" stroke="#000" stroke-width="2.3" stroke-linecap="round" stroke-linejoin="round" stroke-miterlimit="10"/><metadata xmlns:d="https://loading.io/stock/"><d:name>ruler</d:name><d:tags>ruler,scale,straight,stiff,cm,measure,dimension,estimate,meter,gauge,survey,stationery</d:tags><d:license>by</d:license><d:slug>w1p4hw</d:slug></metadata></svg>