<svg xmlns="http://www.w3.org/2000/svg" xmlns:xlink="http://www.w3.org/1999/xlink" viewBox="0 0 593.4 227.92"><defs><style>.cls-1,.cls-30,.cls-31,.cls-34{fill:none;}.cls-2{isolation:isolate;}.cls-3,.cls-5{fill:#edc18c;}.cls-4{clip-path:url(#clip-path);}.cls-14,.cls-17,.cls-26,.cls-29,.cls-5,.cls-8{mix-blend-mode:multiply;}.cls-6,.cls-8{fill:#d47a2b;}.cls-7{clip-path:url(#clip-path-2);}.cls-9{fill:#00c0e6;}.cls-10{clip-path:url(#clip-path-3);}.cls-11{fill:#95c977;}.cls-12{fill:#d9550e;}.cls-13{clip-path:url(#clip-path-4);}.cls-15{fill:#dd9b56;}.cls-16{clip-path:url(#clip-path-5);}.cls-17{opacity:0.64;}.cls-18{fill:#ffa86c;}.cls-19{fill:#a68d61;}.cls-20{clip-path:url(#clip-path-6);}.cls-21{opacity:0.47;}.cls-22{fill:#e1ba75;}.cls-23,.cls-32{fill:#fff;}.cls-23{opacity:0.45;}.cls-24,.cls-26{fill:#57cbcd;}.cls-25{clip-path:url(#clip-path-7);}.cls-27,.cls-29{fill:#5cb5e2;}.cls-28{clip-path:url(#clip-path-8);}.cls-30,.cls-31,.cls-34{stroke:#fff;stroke-miterlimit:10;}.cls-31{stroke-dasharray:3.07 3.07;}.cls-32{font-size:5.05px;font-family:RobotoSlab-Bold, RobotoSlab Bold;font-weight:700;}.cls-33{letter-spacing:0.02em;}.cls-34{stroke-dasharray:3;}.cls-35{letter-spacing:0.02em;}.cls-36{letter-spacing:0em;}</style><clipPath id="clip-path" transform="translate(6.54)"><circle class="cls-1" cx="580.75" cy="63.09" r="5.66"/></clipPath><clipPath id="clip-path-2" transform="translate(6.54)"><path class="cls-1" d="M512.89,49.24a8.48,8.48,0,1,1-5.79,10.5A8.48,8.48,0,0,1,512.89,49.24Z"/></clipPath><clipPath id="clip-path-3" transform="translate(6.54)"><path class="cls-1" d="M450.17,46a11.83,11.83,0,1,1-8.08,14.65A11.84,11.84,0,0,1,450.17,46Z"/></clipPath><clipPath id="clip-path-4" transform="translate(6.54)"><path class="cls-1" d="M386.91,21.89a7.18,7.18,0,1,1-4.9,8.89A7.18,7.18,0,0,1,386.91,21.89Z"/></clipPath><clipPath id="clip-path-5" transform="translate(6.54)"><path class="cls-1" d="M313,59.84a43.14,43.14,0,1,1-29.46,53.42A43.15,43.15,0,0,1,313,59.84Z"/></clipPath><clipPath id="clip-path-6" transform="translate(6.54)"><path class="cls-1" d="M205.63,133.88a29.55,29.55,0,1,1-20.18,36.6A29.56,29.56,0,0,1,205.63,133.88Z"/></clipPath><clipPath id="clip-path-7" transform="translate(6.54)"><path class="cls-1" d="M96.35,146a17,17,0,1,1-11.58,21A17,17,0,0,1,96.35,146Z"/></clipPath><clipPath id="clip-path-8" transform="translate(6.54)"><path class="cls-1" d="M12.25,179.32a17,17,0,1,1-11.58,21A17,17,0,0,1,12.25,179.32Z"/></clipPath></defs><g class="cls-2"><g id="Camada_2" data-name="Camada 2"><g id="OBJECTS"><circle class="cls-3" cx="587.3" cy="63.09" r="5.66"/><g class="cls-4"><path class="cls-5" d="M575.19,65.22a.51.51,0,0,1,0-.3c.08-.2.38-.22.58-.12.46.21.68.72,1,1.11a2.48,2.48,0,0,0,1.43.86.36.36,0,0,0,.23,0c.26-.08.21-.49.39-.69a.53.53,0,0,1,.65,0c.2.12.35.32.55.45a.56.56,0,0,0,.65,0c.06,0,.1-.12.17-.15a.33.33,0,0,1,.24,0c.19,0,.37.09.56.11a1.63,1.63,0,0,0,1.63-.85.55.55,0,0,0,.08-.31c0-.16-.14-.3-.15-.46a.5.5,0,0,1,.32-.41c.17-.08.36-.11.52-.19a1,1,0,0,0,.53-1c-.07-.4-.38-.71-.5-1.1a.25.25,0,0,1,0-.19c0-.08.14-.1.22-.15a.48.48,0,0,0,.19-.45,1.24,1.24,0,0,0-.19-.48A15.46,15.46,0,0,0,583,58.87a.61.61,0,0,1-.18-.42c0-.16.23-.28.33-.16-.05-.21.16-.42.39-.45a1.25,1.25,0,0,1,.64.17,4.59,4.59,0,0,1,1.09.64,3.31,3.31,0,0,1,.59.8,7.75,7.75,0,0,1,.65,1.88,15.45,15.45,0,0,1,.36,2.36,4.55,4.55,0,0,1-.34,2.56,4,4,0,0,1-.9,1.07,7,7,0,0,1-9.31-.14,4.17,4.17,0,0,1-.74-.88A3.59,3.59,0,0,1,575.19,65.22Z" transform="translate(6.54)"/></g><path class="cls-5" d="M577.11,59a3.51,3.51,0,0,0-.61.76,4.9,4.9,0,0,0-.91,3.16c.23-.74.49-1.47.76-2.2a1.07,1.07,0,0,1,.5-.67.4.4,0,0,0,.45.31c-.18-.07-.21-.33-.14-.51a1,1,0,0,1,.81-.63c0,.12,0,.25.07.37s.16-.13.15-.24-.05-.22,0-.32.15-.19.25-.25l1.27-.69A5.18,5.18,0,0,0,577.11,59Z" transform="translate(6.54)"/><path class="cls-5" d="M578.79,62.87a1.22,1.22,0,0,0,.4.52,1.16,1.16,0,0,0,.55.15,1.84,1.84,0,0,0,.81-.13,1,1,0,0,0,.58-.57,1.34,1.34,0,0,0,.08-.53,1.62,1.62,0,0,0-.13-.66A1.41,1.41,0,0,0,579.5,61a1.12,1.12,0,0,0,.36.09,1.31,1.31,0,0,1,.79.52,1.29,1.29,0,0,1,.21.92.48.48,0,0,1-.07.2.42.42,0,0,1-.2.17,3.47,3.47,0,0,1-.59.27.57.57,0,0,1-.29,0,.58.58,0,0,1-.21-.1,4.69,4.69,0,0,1-.63-.63C578.56,62.18,578.71,62.72,578.79,62.87Z" transform="translate(6.54)"/><path class="cls-6" d="M512.89,49.24a8.48,8.48,0,1,1-5.79,10.5A8.48,8.48,0,0,1,512.89,49.24Z" transform="translate(6.54)"/><g class="cls-7"><path class="cls-8" d="M508.35,62.82a8.57,8.57,0,0,0,2.19,2c.14.08.34.16.46,0a6.29,6.29,0,0,1-1.24-1.62,1.35,1.35,0,0,1-.17-.5.54.54,0,0,1,.19-.48c.09-.06.23-.17.14-.24a.9.9,0,0,1-.39.13.32.32,0,0,1-.32-.21c-.07-.29.39-.57.22-.8a.33.33,0,0,1-.47,0,.54.54,0,0,1,.08-.62,2.26,2.26,0,0,0,.38-.55.59.59,0,0,0-.08-.52,1,1,0,0,1-.45.37.53.53,0,0,1-.54-.11.36.36,0,0,1,0-.52.5.5,0,0,0-.55,0,.85.85,0,0,0-.11-.44.32.32,0,0,0-.39-.15,3.37,3.37,0,0,0-.55-.75A6.57,6.57,0,0,0,508.35,62.82Z" transform="translate(6.54)"/><path class="cls-8" d="M512.56,66.27c.11-.06.24-.15.25-.28s-.13-.25-.27-.29a2.12,2.12,0,0,1-.41-.12c.07-.14.25-.17.39-.23s.27-.26.15-.36-.16,0-.23-.08-.1-.23,0-.33a.64.64,0,0,1,.33-.16.55.55,0,0,0-.44-.3c-.18,0-.37,0-.55-.07a.86.86,0,0,1-.43-1.27.29.29,0,0,1,.12-.1c.18,0,.28.19.44.29s.39,0,.58.07.31.19.48.26.42,0,.44-.17c.19,0,.3-.2.36-.38s.19-.4.38-.37.23.21.38.27.33-.07.46-.18a1.59,1.59,0,0,0,.68-1.35c-.15.06-.31-.07-.39-.2a1.68,1.68,0,0,0-.22-.42c0-.06-.12-.1-.15-.17s.1-.44.3-.57a.73.73,0,0,1,.38-.17c.25,0,.44.23.54.46a1.52,1.52,0,0,0,.35.65,4,4,0,0,0,.7.3,1.15,1.15,0,0,1,.51.67,3.41,3.41,0,0,1,.11.85v.11a2.28,2.28,0,0,1-.11,1,.76.76,0,0,1-.85.46.61.61,0,0,0,.4.53,1.45,1.45,0,0,0,.36,0,.87.87,0,0,1,.75.85,1.39,1.39,0,0,1-.56,1.07,3.84,3.84,0,0,1-1.11.55,8.57,8.57,0,0,1-5.22.51,3.18,3.18,0,0,1-1.1-.56,1.67,1.67,0,0,1-.42-.46c-.14-.24-.15-.3.09-.29.41,0,.8.24,1.24.23A3,3,0,0,0,512.56,66.27Z" transform="translate(6.54)"/><path class="cls-8" d="M509.33,56.75a2.41,2.41,0,0,1,.23-.78,2.28,2.28,0,0,1,.6-.84,2.9,2.9,0,0,1,1.23-.49.65.65,0,0,1,.31,0,.56.56,0,0,1,.24.13,2.4,2.4,0,0,1,.57.66c-.1,0-.2,0-.3-.1a1,1,0,0,0-.93,0,2.27,2.27,0,0,0-.77.57,2.1,2.1,0,0,0-.45.62,1.36,1.36,0,0,0-.11.77.93.93,0,0,0,.33.59.58.58,0,0,0,.64,0,.37.37,0,0,1-.19.41C509.87,58.78,509.26,57.42,509.33,56.75Z" transform="translate(6.54)"/><path class="cls-8" d="M520.64,64.51a.75.75,0,0,1-.43.13c-.33,0-.48-.45-.43-.78.11-.75.76-1.28,1.19-1.9a3.7,3.7,0,0,0,.64-2.43.59.59,0,0,0-.09-.32c-.23-.34-.79-.1-1.15-.29a.78.78,0,0,1-.28-.93c.09-.34.31-.64.42-1a.84.84,0,0,0-.22-1,1.67,1.67,0,0,1-.28-.18.53.53,0,0,1-.12-.35c0-.28,0-.57-.06-.85a2.47,2.47,0,0,0-1.9-2,.81.81,0,0,0-.49,0c-.22.08-.37.32-.6.39a.72.72,0,0,1-.73-.28c-.18-.21-.3-.47-.48-.68a1.46,1.46,0,0,0-1.66-.33c-.55.26-.87.84-1.38,1.17a.43.43,0,0,1-.28.08c-.13,0-.2-.16-.3-.25a.71.71,0,0,0-.73-.09,2,2,0,0,0-.61.47,24.71,24.71,0,0,0-2.41,2.8.93.93,0,0,1-.53.43c-.23,0-.5-.23-.36-.42a.62.62,0,0,1-.81-.36,1.85,1.85,0,0,1,0-1,6.09,6.09,0,0,1,.48-1.84,4.35,4.35,0,0,1,.9-1.19,11.2,11.2,0,0,1,2.43-1.71,24.43,24.43,0,0,1,3.24-1.51,6.9,6.9,0,0,1,3.83-.57,5.53,5.53,0,0,1,1.92.86A10.48,10.48,0,0,1,523,62.13a5.54,5.54,0,0,1-1,1.44A5.34,5.34,0,0,1,520.64,64.51Z" transform="translate(6.54)"/></g><path class="cls-9" d="M450.17,46a11.83,11.83,0,1,1-8.08,14.65A11.84,11.84,0,0,1,450.17,46Z" transform="translate(6.54)"/><g class="cls-10"><path class="cls-11" d="M453.18,70.05s.29-1.43.36-1.54.19-.45.48-.56,1.39-.91,1.72-1,1-.92,1.4-1.32.7-1.1,1-1.32.92-1.55,1.32-1.77.7-1.83.7-1.83a1.66,1.66,0,0,0-.85-.88,14.4,14.4,0,0,1-1.79-1c-.37-.29-1.25-1.1-1.25-1.1a6.49,6.49,0,0,0-1.14-.62,6.83,6.83,0,0,1-1.5,0c-.11-.11-1.1-.51-1.14-.66a3.48,3.48,0,0,0-.48-.63s-.51.11-.62,0-.22,0-.22-.36,0-1.65,0-1.87a3.1,3.1,0,0,0-.44-1.17c-.19-.12-.19-.37-.37-.34s-.88.16-1,.34-.26.36-.44.36l-1.18,0V52.1s.55-.62.7-.62a4.65,4.65,0,0,0,1,0c.26-.08,1,.07,1.29,0s1.65-.74,1.87-.74.48-.58.84-.91a7,7,0,0,0,1.07-1.4,14.28,14.28,0,0,0-.3-1.8c0-.36-.44-.58-.66-.88a16.34,16.34,0,0,0-1.06-1.83c-.19,0-1.69-.33-2.13,0s-6.83,4-6.83,4.18a5.42,5.42,0,0,0,.55,2.28,1.44,1.44,0,0,1,.15,1.39,1.17,1.17,0,0,0,.7.88c.66.33,1.36,1.07,1.72,1.18s1.73.58,1.91.69,1.36.08,1.54.63.33.69.81.69.59.15.44.74-.48,1.36-.55,1.69a4.76,4.76,0,0,0-.26,1.87,8.1,8.1,0,0,0,1,2.42,4.94,4.94,0,0,1,1.07,1.8c0,.29-.37,2.49-.37,2.68s.44,2.82.44,2.82Z" transform="translate(6.54)"/><path class="cls-11" d="M462.4,47.37s-.26,3.52-.29,3.89a21.64,21.64,0,0,0,1.5,3.15,6.73,6.73,0,0,1,.7,2.49c0,.93,0,1.59,0,2.32a19.92,19.92,0,0,1-.63,2.72s-1.24,1.76-1.32,1.94a4.94,4.94,0,0,0-.44,1.58c0,.59.88,1.25.88,1.25s2.28-5.25,2.57-5.69,1.43-7.08,1.43-7.08l-1.5-4.22Z" transform="translate(6.54)"/><path class="cls-11" d="M441.65,54.29a6.6,6.6,0,0,1,1.17,1.54c.07.41-.07,2.79,0,3s.66,1.94.84,2.27,1.07,1.76,1.21,1.91a11.48,11.48,0,0,0,1.51,1.94,3.68,3.68,0,0,1,.91,1.36.82.82,0,0,1,0,.77l-.21.41s-3.82-.7-3.82-1-2.57-9-2.57-9Z" transform="translate(6.54)"/></g><path class="cls-12" d="M386.91,21.89a7.18,7.18,0,1,1-4.9,8.89A7.18,7.18,0,0,1,386.91,21.89Z" transform="translate(6.54)"/><g class="cls-13"><g class="cls-14"><path class="cls-12" d="M382.33,32.85a.94.94,0,0,1,.57-.81,1.43,1.43,0,0,1,1.09.23l1.7.9a1,1,0,0,0,.47.16c.5,0,.75-.63,1.22-.82a1.81,1.81,0,0,1,1.25.2,4,4,0,0,0,1.64.23,1.11,1.11,0,0,0,.74-.25c.32-.3.27-.84.51-1.21.42-.61,1.36-.45,2-.79.84-.44,1-1.55,1-2.5a2.32,2.32,0,0,0-.11-.83,2.1,2.1,0,0,0-1.82-1.09,1.26,1.26,0,0,0-.61,0,1.29,1.29,0,0,0-.65,1,2.1,2.1,0,0,1-.44,1.18,1.38,1.38,0,0,1-1.58,0c-.5-.26-.9-.68-1.39-1a5.69,5.69,0,0,0-3.33-.41,2.4,2.4,0,0,0-.7.13c-.21.1-.39.27-.61.37a1.31,1.31,0,0,1-1.36-.27,2.49,2.49,0,0,1-.72-1.26,4.47,4.47,0,0,1,1.8-4.86,6.3,6.3,0,0,1,2.4-.79,15.6,15.6,0,0,1,9,1.3,7.51,7.51,0,0,1,4,3.85,9.87,9.87,0,0,1,.43,3.11,9.75,9.75,0,0,1-.24,3.05,9.4,9.4,0,0,1-.84,1.86,6.37,6.37,0,0,1-.89,1.34,5,5,0,0,1-1.5,1,16.51,16.51,0,0,1-4.12,1.26,10.07,10.07,0,0,1-2.62.19,11.19,11.19,0,0,1-2.44-.54,8.59,8.59,0,0,1-2.34-1.08A3.45,3.45,0,0,1,382.33,32.85Z" transform="translate(6.54)"/></g><g class="cls-14"><path class="cls-12" d="M386.7,23.44a.7.7,0,0,0-.29.8l0,.06a.17.17,0,0,0,.12,0,1.2,1.2,0,0,0,.75-.32.85.85,0,0,1,.77-.18,3.75,3.75,0,0,0,.36.24A1,1,0,0,0,389,24a2,2,0,0,1,.65-.08.77.77,0,0,0,.4,0,.23.23,0,0,0,.1-.33.46.46,0,0,0-.16-.07C389.12,23.31,387.53,22.85,386.7,23.44Z" transform="translate(6.54)"/></g><g class="cls-14"><path class="cls-12" d="M389.73,35.16a1.14,1.14,0,0,0,.49-.69.39.39,0,0,0,0-.24.16.16,0,0,0-.21-.07c0,.08,0,.17,0,.26a.48.48,0,0,1-.15.22l-.26.23a1,1,0,0,1-.2.16,1.5,1.5,0,0,1-1,.14.48.48,0,0,1-.31-.1c-.05-.07-.07-.15-.12-.22-.17-.23-.24.1-.15.25s.21.17.37.21A2.15,2.15,0,0,0,389.73,35.16Z" transform="translate(6.54)"/></g><g class="cls-14"><path class="cls-12" d="M382,28.12a3.72,3.72,0,0,1,1,.48,3.6,3.6,0,0,0,2.61.34,4.73,4.73,0,0,1,1.55-.33c.8.08,1.36.83,2.1,1.14a4.07,4.07,0,0,0,2.46-.1.77.77,0,0,1,0,.79A1.64,1.64,0,0,1,391,31a8,8,0,0,1-3.71.68,6.13,6.13,0,0,1-1.21-.05,10.15,10.15,0,0,1-1.43-.41,9.05,9.05,0,0,0-1-.24,1,1,0,0,0-.53,0c-.42.16-.54.76-1,.9a.73.73,0,0,1-.74-.24,2.19,2.19,0,0,1-.37-.73,4.11,4.11,0,0,1-.45-2.27C380.74,28.17,381.59,28,382,28.12Z" transform="translate(6.54)"/></g><g class="cls-14"><path class="cls-12" d="M388.85,24.86a1.11,1.11,0,0,0-.74.49.79.79,0,0,0,.31,1,1.45,1.45,0,0,0,1.06.18,2.81,2.81,0,0,0,1-.35,1,1,0,0,0,.36-.34,1,1,0,0,0-.06-.84.11.11,0,0,0-.07-.09c-.08,0-.14.09-.12.18a1.69,1.69,0,0,1,.07.38.61.61,0,0,1-.16.28,1.77,1.77,0,0,1-1.34.53.86.86,0,0,1-.42-.12.42.42,0,0,1-.22-.37c0-.23.22-.4.45-.48s.73-.17.67-.37S389,24.83,388.85,24.86Z" transform="translate(6.54)"/></g><g class="cls-14"><path class="cls-12" d="M393.66,33.21a3.32,3.32,0,0,0,.58-.4,2.77,2.77,0,0,0,.63-1.31,2,2,0,0,0,.12-.68.69.69,0,0,0-.32-.58,2.07,2.07,0,0,1,.14.81,2,2,0,0,1-.18.57l-.24.52a1.33,1.33,0,0,1-.27.46,1.73,1.73,0,0,1-.43.27c-.15.08-.66.28-.65.49S393.55,33.27,393.66,33.21Z" transform="translate(6.54)"/></g></g><path class="cls-15" d="M313,59.84a43.14,43.14,0,1,1-29.46,53.42A43.15,43.15,0,0,1,313,59.84Z" transform="translate(6.54)"/><g class="cls-16"><g class="cls-17"><path class="cls-15" d="M344.78,130.15c6.19-1.58,12.6-2.87,18.93-2.06,1.4,4.6-.69,9.73-4.16,13.07s-8.08,5.19-12.68,6.6c-7.59,2.32-38.11,10.93-39.05-2.89-.48-7.22,6.68-7,12-8.15C328.22,134.92,336.43,132.29,344.78,130.15Z" transform="translate(6.54)"/></g><g class="cls-17"><path class="cls-15" d="M376.09,100.56a2.82,2.82,0,0,0,1.58-1c.46-.8,0-1.81-.41-2.63l-3.84-7.24a2.46,2.46,0,0,0-1.32-1.4,2.44,2.44,0,0,0-1.63.3L333,104.86c-11.29,4.93-22.59,9.85-33.74,15.08-4,1.85-20,6.67-9.49,9.6,8,2.23,18.06-3.92,25.32-6.58Z" transform="translate(6.54)"/></g><g class="cls-17"><path class="cls-15" d="M373.09,77.67c-.28-4-3.06-7.57-6.46-9.78s-7.37-3.33-11.27-4.42a11.33,11.33,0,0,0-3.86-.6,11.47,11.47,0,0,0-4.22,1.52,526.82,526.82,0,0,1-64.16,27.74c-4.49,1.59-16.39,5.84-13.49,12.72,2.09,5,11.5,4.24,15.51,3.23,8.71-2.17,17.13-7.58,25.44-11q14.12-5.79,28.67-10.41Q355.95,81.39,373.09,77.67Z" transform="translate(6.54)"/></g><g class="cls-17"><path class="cls-15" d="M315.43,67.53c3.28-1.35,6.68-2.39,10-3.63a171.7,171.7,0,0,0,20.89-10c-2.66-1.76-6.05-1.82-9.24-1.83L315,52a45,45,0,0,0-10.44.79C298,54.34,292.44,58.73,288.28,64c-3.36,4.24-17.46,24.22-3.6,20.3C295.69,81.15,304.84,71.92,315.43,67.53Z" transform="translate(6.54)"/></g><path class="cls-18" d="M375.1,106c-21.68,3.15-40,16.29-60.19,23.77-3.33,1.23-13.57,2.12-15.75,4.36-4.31,4.39,5.68,2.17,8,1.6a225.87,225.87,0,0,0,33.5-11.28q9.14-3.9,17.88-8.59C363,113.43,370.3,106.66,375.1,106Z" transform="translate(6.54)"/><path class="cls-18" d="M305.54,108.42c21.76-9,46.1-12.59,65.54-25.92a3.68,3.68,0,0,0,1.27-1.24,4.64,4.64,0,0,0,.26-2.17,9.57,9.57,0,0,1,1.57-5.27c-5.73-1.74-11.86.15-17.52,2.09a701.87,701.87,0,0,0-82.29,34.32,4.38,4.38,0,0,0-1.93,1.45c-1.86,3,3.21,5.51,5.13,6.58,3.77,2.11,3.23,2.31,7.61.14C292,115,298.53,111.33,305.54,108.42Z" transform="translate(6.54)"/><path class="cls-18" d="M315.7,79.4C327,75,338.73,70,346.05,60.29c-3.86-.88-7.84.53-11.55,1.92L298.75,75.57c-3.75,1.4-32.34,10-18.6,13.84C290.71,92.41,306.14,83.11,315.7,79.4Z" transform="translate(6.54)"/></g><path class="cls-19" d="M205.63,133.88a29.55,29.55,0,1,1-20.18,36.6A29.56,29.56,0,0,1,205.63,133.88Z" transform="translate(6.54)"/><g class="cls-20"><g class="cls-21"><path class="cls-22" d="M227.44,182.05c4.24-1.08,8.63-2,13-1.41,1,3.15-.47,6.66-2.84,9s-5.54,3.56-8.7,4.52c-5.2,1.6-26.11,7.49-26.75-2-.33-4.94,4.58-4.8,8.2-5.58C216.1,185.32,221.73,183.51,227.44,182.05Z" transform="translate(6.54)"/></g><g class="cls-21"><path class="cls-22" d="M248.89,161.78a1.46,1.46,0,0,0,.81-2.52l-2.64-5a1.27,1.27,0,0,0-2-.75L219.4,164.72c-7.74,3.38-15.47,6.75-23.12,10.33-2.71,1.27-13.69,4.58-6.5,6.58,5.49,1.53,12.38-2.68,17.35-4.51Z" transform="translate(6.54)"/></g><g class="cls-21"><path class="cls-22" d="M246.84,146.1a9.19,9.19,0,0,0-4.42-6.71,27,27,0,0,0-7.73-3,5.79,5.79,0,0,0-5.54.62,359.71,359.71,0,0,1-44,19c-3.08,1.09-11.23,4-9.25,8.72,1.44,3.4,7.88,2.9,10.63,2.21,6-1.49,11.74-5.2,17.43-7.53q9.68-4,19.65-7.13Q235.09,148.64,246.84,146.1Z" transform="translate(6.54)"/></g><g class="cls-21"><path class="cls-22" d="M207.33,139.15c2.25-.93,4.58-1.64,6.86-2.49a118.05,118.05,0,0,0,14.31-6.85c-1.82-1.21-4.15-1.25-6.33-1.26l-15.16,0a30.63,30.63,0,0,0-7.16.54c-4.46,1.05-8.26,4.06-11.12,7.65-2.3,2.9-12,16.59-2.47,13.9C193.81,148.48,200.08,142.15,207.33,139.15Z" transform="translate(6.54)"/></g><path class="cls-22" d="M248.22,165.48c-14.86,2.16-27.39,11.16-41.24,16.28-2.28.84-9.3,1.46-10.79,3-2.95,3,3.89,1.49,5.45,1.09a154.47,154.47,0,0,0,23-7.72q6.26-2.67,12.25-5.89C239.9,170.59,244.93,166,248.22,165.48Z" transform="translate(6.54)"/><path class="cls-22" d="M200.56,167.16c14.91-6.2,31.58-8.63,44.9-17.76a2.37,2.37,0,0,0,.87-.85,3.21,3.21,0,0,0,.18-1.48,6.56,6.56,0,0,1,1.08-3.62c-3.93-1.19-8.13.11-12,1.44A482,482,0,0,0,179.2,168.4a3.12,3.12,0,0,0-1.32,1c-1.28,2.05,2.2,3.78,3.51,4.51,2.59,1.45,2.22,1.59,5.22.1C191.25,171.68,195.75,169.16,200.56,167.16Z" transform="translate(6.54)"/><path class="cls-22" d="M207.52,147.28c7.74-3,15.78-6.48,20.79-13.09-2.64-.61-5.37.36-7.91,1.31l-24.49,9.16c-2.57,1-22.16,6.81-12.75,9.48C190.4,156.19,201,149.82,207.52,147.28Z" transform="translate(6.54)"/></g><path class="cls-23" d="M232.48,139.43c.45.37.91.74,1.34,1.14,12.63-4.34,21.7-5.64,23.1-2.77s-4.64,8.72-15,15.64a222.24,222.24,0,0,1-25.43,14.45,221.4,221.4,0,0,1-27,11.24c-11.79,3.91-20.18,5-21.52,2.24s5.18-9.25,16.35-16.57c-.05-.59-.09-1.17-.1-1.75-19.66,12.24-31.76,24-29.06,29.55s20.23,3.07,42.7-5.42c7.3-2.76,15.13-6.14,23.15-10.07s15.48-8,22.13-12.12c20.48-12.55,33.23-24.78,30.46-30.42S254.2,131.4,232.48,139.43Z" transform="translate(6.54)"/><path class="cls-24" d="M96.35,146a17,17,0,1,1-11.58,21A17,17,0,0,1,96.35,146Z" transform="translate(6.54)"/><g class="cls-25"><path class="cls-26" d="M82,165.08a4.26,4.26,0,0,1,.37-2.13,2.62,2.62,0,0,1,2.74-1.07,5,5,0,0,1,2.62,1.63c1.67,1.79,2.6,4.14,4.08,6.1s3.92,3.56,6.27,2.87a3.61,3.61,0,0,1,2.4-4.11c2.55-.76,5.72,1.36,7.74-.36a4.28,4.28,0,0,0,1.15-2c.64-1.93.65-4.38-1-5.62-1.17-.9-3.22-1.43-3-2.88.15-.83,1.07-1.27,1.9-1.41a5.91,5.91,0,0,0,2.44-.58,2,2,0,0,0,.76-.94c.51-1.29-.44-2.75-1.64-3.44a26.47,26.47,0,0,0-3.93-1.37c-1.29-.5-2.58-1.49-2.71-2.87a3.1,3.1,0,0,1,1.93-2.93,6.66,6.66,0,0,1,3.68-.35,19.15,19.15,0,0,1,13.85,9.71,24.48,24.48,0,0,1,2.28,17,14,14,0,0,1-2.12,5.29,17.37,17.37,0,0,1-5.52,4.45,26.16,26.16,0,0,1-8.85,3.7c-6.75,1.1-13.24-2.63-19.07-6.21-2.17-1.33-4.58-2.91-5.78-5.26C81.6,170.21,82.06,167.46,82,165.08Z" transform="translate(6.54)"/><path class="cls-26" d="M90,148c-.66,1.61-1.13,3.53-.23,5,1,1.71,3.39,2,5.37,1.76a5.91,5.91,0,0,0,.56-2,3.67,3.67,0,0,1,.76-1.91,1.44,1.44,0,0,1,1.86-.34c.2.15.38.38.62.39s.54-.4.61-.74a7.08,7.08,0,0,0-.18-3.36,4.14,4.14,0,0,0-1.53-2.25C94.83,142.56,91.15,145.23,90,148Z" transform="translate(6.54)"/><path class="cls-26" d="M92.5,164.12a4.33,4.33,0,0,0,3.61,1.58,2.33,2.33,0,0,0,2.11-1.14c.49-1.11-.43-2.69.48-3.49a3.64,3.64,0,0,1,1.32-.51,2.71,2.71,0,0,0,1.52-3.51,5.16,5.16,0,0,0-2.79.15,7.58,7.58,0,0,0-2.08,2c-1.54,1.67-2.78.05-4.15.94C91.35,160.86,91.84,163.24,92.5,164.12Z" transform="translate(6.54)"/></g><path class="cls-27" d="M12.25,179.32a17,17,0,1,1-11.58,21A17,17,0,0,1,12.25,179.32Z" transform="translate(6.54)"/><g class="cls-28"><path class="cls-29" d="M39.59,189.43a1.48,1.48,0,0,0,.72-.21c.38-.31.32-.9.2-1.37-1-3.83-4.21-6.77-7.69-8.68-9-5-20-4.17-30.28-3.24A35.74,35.74,0,0,0,18,182.61c-3,1.86-6.94,1.17-10.24-.1s-6.48-3.1-10-3.4c-1.23-.11-3.84.54-3.53,2.25.25,1.37,3.94,2.19,5,2.61a90.07,90.07,0,0,0,40.31,5.46Z" transform="translate(6.54)"/><path class="cls-29" d="M2.28,196.47a45.31,45.31,0,0,0,7.35,3.65,41.25,41.25,0,0,0,10.12,1.79q8.91.76,17.86.93c.87,3.2-.91,6.67-3.56,8.67s-6,2.8-9.28,3.31a69.24,69.24,0,0,1-12.21.82,12.08,12.08,0,0,1-3.74-.52,12.37,12.37,0,0,1-3.6-2.23,35.84,35.84,0,0,1-6.19-6,20.6,20.6,0,0,1-4.24-10.52C-5.66,190.37-.64,194.78,2.28,196.47Z" transform="translate(6.54)"/><path class="cls-29" d="M32.34,200.47c-1.61-.48-3.16-1.16-4.78-1.6-4.72-1.27-10.12-.47-14.22-3.13a168.76,168.76,0,0,1,23,.47,5.41,5.41,0,0,1,1.91.42c1.64.83,3.23,3.22,1.42,4.47C38.16,202.17,33.91,200.94,32.34,200.47Z" transform="translate(6.54)"/><path class="cls-29" d="M-4.67,184.28c.4-.37,1-.15,1.52.09A141.83,141.83,0,0,0,16.65,192a10.2,10.2,0,0,1-9.74,2,6.57,6.57,0,0,1,3.82,3A99.84,99.84,0,0,1-6.54,189.8" transform="translate(6.54)"/></g><path class="cls-30" d="M579.7,77.94s-.11.54-.38,1.44" transform="translate(6.54)"/><path class="cls-31" d="M578.27,82.27c-2.91,6.91-11.14,19.49-32.15,17.82-22.29-1.77-26.9-16-27.85-22.33" transform="translate(6.54)"/><path class="cls-30" d="M518.09,76.23c-.08-.94-.07-1.49-.07-1.49" transform="translate(6.54)"/><text class="cls-32" transform="translate(548.75 112.66)">1234 <tspan class="cls-33" x="11.43" y="0">k</tspan><tspan x="13.89" y="0">m</tspan></text><path class="cls-34" d="M513.91,41.85s-2.51-28.32-26.26-31.74-34.18,17.38-34.2,28.55" transform="translate(6.54)"/><text class="cls-32" transform="translate(481.18 4.23)">1234 <tspan class="cls-33" x="11.43" y="0">k</tspan><tspan x="13.89" y="0">m</tspan></text><path class="cls-34" d="M445.63,73.14c-14.85,17.82-55,11.62-55-27.59" transform="translate(6.54)"/><text class="cls-32" transform="translate(415.6 92.97)">1234 <tspan class="cls-33" x="11.43" y="0">k</tspan><tspan x="13.89" y="0">m</tspan></text><path class="cls-34" d="M378.94,25.79s-15.76-20.93-50.7-10.43-29,46.89-29,46.89" transform="translate(6.54)"/><text class="cls-32" transform="translate(305.7 13.67)">1234 <tspan class="cls-33" x="11.43" y="0">k</tspan><tspan x="13.89" y="0">m</tspan></text><path class="cls-34" d="M328.24,150.56s.66,34.26-29.39,47c-26.44,11.24-59.06-11.06-59.06-11.06" transform="translate(6.54)"/><text class="cls-32" transform="translate(305.7 207.53)">1234 <tspan class="cls-33" x="11.43" y="0">k</tspan><tspan x="13.89" y="0">m</tspan></text><path class="cls-34" d="M192.12,136.63s-11.54-16.9-37.29-17.58S112,142.11,112,142.11" transform="translate(6.54)"/><text class="cls-32" transform="translate(149.54 113.96)">1234 <tspan class="cls-35" x="11.43" y="0">k</tspan><tspan class="cls-36" x="13.89" y="0">m</tspan></text><path class="cls-34" d="M97.8,184.82S99.4,208.57,77,216.34s-41.11-9.6-41.11-9.6" transform="translate(6.54)"/><text class="cls-32" transform="translate(85.01 226.66)">1234 <tspan class="cls-35" x="11.43" y="0">k</tspan><tspan class="cls-36" x="13.89" y="0">m</tspan></text></g></g></g></svg>